<?xml version="1.0" encoding="UTF-8" standalone="no"?>
<svg xmlns:dc="http://purl.org/dc/elements/1.1/" xmlns:cc="http://creativecommons.org/ns#" xmlns:rdf="http://www.w3.org/1999/02/22-rdf-syntax-ns#" xmlns:svg="http://www.w3.org/2000/svg" xmlns="http://www.w3.org/2000/svg" xmlns:xlink="http://www.w3.org/1999/xlink" xmlns:sodipodi="http://sodipodi.sourceforge.net/DTD/sodipodi-0.dtd" xmlns:inkscape="http://www.inkscape.org/namespaces/inkscape" width="800" height="800" viewBox="0 0 211.66666 211.66667" version="1.1" id="svg8" inkscape:version="1.0.1 (3bc2e813f5, 2020-09-07)" sodipodi:docname="mylogo_transparent.svg" inkscape:export-filename="C:\Users\Abdera7mane\OneDrive\Images\Logo\simplified.png" inkscape:export-xdpi="325" inkscape:export-ydpi="325">
  <defs id="defs2">
    <inkscape:path-effect effect="fillet_chamfer" id="path-effect1057" is_visible="true" lpeversion="1" satellites_param="F,0,0,1,0,0.79375,0,1 @ F,0,0,1,0,0.79375,0,1 @ F,0,0,1,0,0.79375,0,1 @ F,0,0,1,0,0.79375,0,1" unit="px" method="auto" mode="F" radius="3" chamfer_steps="1" flexible="false" use_knot_distance="true" apply_no_radius="true" apply_with_radius="true" only_selected="false" hide_knots="false"/>
    <linearGradient inkscape:collect="always" id="linearGradient1032">
      <stop style="stop-color:#ebd04d;stop-opacity:1" offset="0" id="stop1028"/>
      <stop style="stop-color:#f8eabd;stop-opacity:1" offset="1" id="stop1030"/>
    </linearGradient>
    <linearGradient inkscape:collect="always" id="linearGradient990">
      <stop style="stop-color:#d6d6d6;stop-opacity:1" offset="0" id="stop986"/>
      <stop style="stop-color:#fbfbfb;stop-opacity:1" offset="1" id="stop988"/>
    </linearGradient>
    <inkscape:path-effect effect="fillet_chamfer" id="path-effect984" is_visible="true" lpeversion="1" satellites_param="F,0,0,1,0,0.79375,0,1 @ F,0,0,1,0,0.79375,0,1 @ F,0,0,1,0,0.79375,0,1 @ F,0,0,1,0,0.79375,0,1" unit="px" method="auto" mode="F" radius="3" chamfer_steps="1" flexible="false" use_knot_distance="true" apply_no_radius="true" apply_with_radius="true" only_selected="false" hide_knots="false"/>
    <inkscape:path-effect effect="fillet_chamfer" id="path-effect982" is_visible="true" lpeversion="1" satellites_param="F,0,0,1,0,0.79375,0,1 @ F,0,0,1,0,0.79375,0,1 @ F,0,0,1,0,0.79375,0,1 @ F,0,0,1,0,0.79375,0,1 @ F,0,0,1,0,0.79375,0,1" unit="px" method="auto" mode="F" radius="3" chamfer_steps="1" flexible="false" use_knot_distance="true" apply_no_radius="true" apply_with_radius="true" only_selected="false" hide_knots="false"/>
    <linearGradient inkscape:collect="always" xlink:href="#linearGradient990" id="linearGradient992" x1="-109.69489" y1="217.95229" x2="-99.219559" y2="199.80847" gradientUnits="userSpaceOnUse" gradientTransform="matrix(1.4559378,0,0,1.4559378,214.30415,-179.40507)"/>
    <linearGradient inkscape:collect="always" xlink:href="#linearGradient990" id="linearGradient1000" x1="-41.14637" y1="221.09363" x2="-48.192669" y2="208.88908" gradientUnits="userSpaceOnUse"/>
    <linearGradient inkscape:collect="always" xlink:href="#linearGradient990" id="linearGradient1010" gradientUnits="userSpaceOnUse" x1="-41.14637" y1="221.09363" x2="-48.192669" y2="208.88908" gradientTransform="matrix(1.4559378,0,0,1.4559378,214.30415,-179.40507)"/>
    <linearGradient inkscape:collect="always" xlink:href="#linearGradient1032" id="linearGradient1034" x1="-53.620995" y1="196.77866" x2="-39.412144" y2="182.56981" gradientUnits="userSpaceOnUse" gradientTransform="matrix(1.4559378,0,0,1.4559378,214.30752,-179.40507)"/>
  </defs>
  <sodipodi:namedview id="base" pagecolor="#ffffff" bordercolor="#666666" borderopacity="1.0" inkscape:pageopacity="0.0" inkscape:pageshadow="2" inkscape:zoom="0.49497475" inkscape:cx="535.13869" inkscape:cy="321.56031" inkscape:document-units="mm" inkscape:current-layer="layer1" inkscape:document-rotation="0" showgrid="false" inkscape:snap-bbox="true" inkscape:snap-smooth-nodes="true" inkscape:object-paths="true" inkscape:snap-intersection-paths="true" inkscape:snap-midpoints="true" inkscape:bbox-paths="false" inkscape:bbox-nodes="false" inkscape:snap-bbox-edge-midpoints="false" inkscape:snap-bbox-midpoints="false" inkscape:snap-nodes="true" inkscape:window-width="1366" inkscape:window-height="715" inkscape:window-x="-8" inkscape:window-y="-8" inkscape:window-maximized="1" showborder="true" units="px">
    <inkscape:grid type="xygrid" id="grid21"/>
  </sodipodi:namedview>
  <metadata id="metadata5">
    <rdf:RDF>
      <cc:Work rdf:about="">
        <dc:format>image/svg+xml</dc:format>
        <dc:type rdf:resource="http://purl.org/dc/dcmitype/StillImage"/>
        <dc:title/>
      </cc:Work>
    </rdf:RDF>
  </metadata>
  <g inkscape:label="Layer 1" inkscape:groupmode="layer" id="layer1">
    <g id="g858">
      <path id="path864" style="color:#000000;font-style:normal;font-variant:normal;font-weight:normal;font-stretch:normal;font-size:medium;line-height:normal;font-family:sans-serif;font-variant-ligatures:normal;font-variant-position:normal;font-variant-caps:normal;font-variant-numeric:normal;font-variant-alternates:normal;font-variant-east-asian:normal;font-feature-settings:normal;font-variation-settings:normal;text-indent:0;text-align:start;text-decoration:none;text-decoration-line:none;text-decoration-style:solid;text-decoration-color:#000000;letter-spacing:normal;word-spacing:normal;text-transform:none;writing-mode:lr-tb;direction:ltr;text-orientation:mixed;dominant-baseline:auto;baseline-shift:baseline;text-anchor:start;white-space:normal;shape-padding:0;shape-margin:0;inline-size:0;clip-rule:nonzero;display:inline;overflow:visible;visibility:visible;isolation:auto;mix-blend-mode:normal;color-interpolation:sRGB;color-interpolation-filters:linearRGB;solid-color:#000000;solid-opacity:1;vector-effect:none;fill:#000000;fill-opacity:1;fill-rule:nonzero;stroke:none;stroke-width:6.9339;stroke-linecap:round;stroke-linejoin:bevel;stroke-miterlimit:4;stroke-dasharray:none;stroke-dashoffset:0;stroke-opacity:1;paint-order:stroke fill markers;color-rendering:auto;image-rendering:auto;shape-rendering:auto;text-rendering:auto;enable-background:accumulate;stop-color:#000000" d="m 129.87478,34.149703 c -17.33186,0.173591 -34.678264,-0.186404 -52.000633,0.307785 -4.287325,0.963554 -7.122796,4.824337 -8.759646,8.658578 -14.371314,26.885042 -28.837789,53.715763 -42.980972,80.715994 -1.434725,4.64341 0.959404,9.70906 4.652172,12.58021 13.228054,13.11714 26.194287,26.50137 39.711267,39.32454 4.084281,2.42909 8.999715,1.63352 13.519748,1.75742 18.534404,-0.041 37.072534,0.19098 55.603174,-0.29011 4.55222,-1.12771 7.42147,-5.12499 10.66143,-8.18445 11.44167,-11.45967 22.9976,-22.80885 34.17691,-34.52685 2.5505,-4.06304 1.60097,-9.45972 -1.04362,-13.23424 -14.46476,-27.651188 -28.82738,-55.36128 -43.46235,-82.919242 -2.28868,-3.10122 -6.36347,-4.305586 -10.07748,-4.189635 z"/>
      <path id="path1044" style="color:#000000;font-style:normal;font-variant:normal;font-weight:normal;font-stretch:normal;font-size:medium;line-height:normal;font-family:sans-serif;font-variant-ligatures:normal;font-variant-position:normal;font-variant-caps:normal;font-variant-numeric:normal;font-variant-alternates:normal;font-variant-east-asian:normal;font-feature-settings:normal;font-variation-settings:normal;text-indent:0;text-align:start;text-decoration:none;text-decoration-line:none;text-decoration-style:solid;text-decoration-color:#000000;letter-spacing:normal;word-spacing:normal;text-transform:none;writing-mode:lr-tb;direction:ltr;text-orientation:mixed;dominant-baseline:auto;baseline-shift:baseline;text-anchor:start;white-space:normal;shape-padding:0;shape-margin:0;inline-size:0;clip-rule:nonzero;display:inline;overflow:visible;visibility:visible;isolation:auto;mix-blend-mode:normal;color-interpolation:sRGB;color-interpolation-filters:linearRGB;solid-color:#000000;solid-opacity:1;vector-effect:none;fill:#1a1a1a;fill-opacity:1;fill-rule:nonzero;stroke:none;stroke-width:6.9339;stroke-linecap:round;stroke-linejoin:bevel;stroke-miterlimit:4;stroke-dasharray:none;stroke-dashoffset:0;stroke-opacity:1;paint-order:stroke fill markers;color-rendering:auto;image-rendering:auto;shape-rendering:auto;text-rendering:auto;enable-background:accumulate;stop-color:#000000" d="m 122.44141,41.646484 c -14.41489,0.03308 -28.832252,-0.07259 -43.244144,0.28711 -2.384055,1.339714 -3.137183,4.153167 -4.377761,6.397824 -6.353339,11.779429 -12.626859,23.60354 -18.944379,35.402889 -7.559506,14.175088 -15.111801,28.354013 -22.597782,42.564523 -0.168729,2.25856 1.625877,3.97437 3.201503,5.31898 2.361537,2.18991 4.569529,4.54629 6.871414,6.80087 10.392158,10.40045 20.760662,20.82751 31.36263,31.01687 4.004,1.27464 8.233422,0.23337 12.334765,0.58798 17.027874,-0.006 34.057644,0.0828 51.083204,-0.25791 3.81754,-1.96464 6.10256,-5.78331 9.3266,-8.48279 10.30572,-10.3045 20.63812,-20.58427 30.76129,-31.06994 0.72307,-2.18367 -0.61317,-4.2989 -1.6886,-6.10523 -2.08354,-3.75664 -3.99744,-7.60833 -6.01487,-11.402 -12.21395,-23.361905 -24.43044,-46.722522 -36.72231,-70.043551 -1.54827,-1.362298 -3.76319,-0.969365 -5.65625,-1.038966 -1.89844,0.0078 -3.79687,0.01556 -5.69531,0.02334 z"/>
      <path id="path862" style="color:#000000;font-style:normal;font-variant:normal;font-weight:normal;font-stretch:normal;font-size:medium;line-height:normal;font-family:sans-serif;font-variant-ligatures:normal;font-variant-position:normal;font-variant-caps:normal;font-variant-numeric:normal;font-variant-alternates:normal;font-variant-east-asian:normal;font-feature-settings:normal;font-variation-settings:normal;text-indent:0;text-align:start;text-decoration:none;text-decoration-line:none;text-decoration-style:solid;text-decoration-color:#000000;letter-spacing:normal;word-spacing:normal;text-transform:none;writing-mode:lr-tb;direction:ltr;text-orientation:mixed;dominant-baseline:auto;baseline-shift:baseline;text-anchor:start;white-space:normal;shape-padding:0;shape-margin:0;inline-size:0;clip-rule:nonzero;display:inline;overflow:visible;visibility:visible;isolation:auto;mix-blend-mode:normal;color-interpolation:sRGB;color-interpolation-filters:linearRGB;solid-color:#000000;solid-opacity:1;vector-effect:none;fill:url(#linearGradient1034);fill-opacity:1;fill-rule:nonzero;stroke:none;stroke-width:0;stroke-linecap:round;stroke-linejoin:bevel;stroke-miterlimit:4;stroke-dasharray:none;stroke-dashoffset:0;stroke-opacity:1;paint-order:stroke fill markers;color-rendering:auto;image-rendering:auto;shape-rendering:auto;text-rendering:auto;enable-background:accumulate;stop-color:#000000" d="m 130.26977,41.459559 c -9.16962,0.09959 -18.35268,0.01456 -27.52746,0.04266 -7.546034,0.02621 -15.106518,-0.05256 -22.643524,0.03931 -0.989818,0.481348 -2.023921,1.030484 -2.857004,1.757841 C 62.621747,70.631384 48.0017,97.963384 33.381653,125.2954 c -0.02038,1.22837 0.09129,2.5447 0.523235,3.71947 1.089682,1.55268 2.656417,2.73557 3.935968,4.1407 12.049224,12.02476 24.053912,24.10285 36.13097,36.09428 1.486294,0.917 3.258103,1.05936 4.956797,0.91516 19.50597,-0.016 39.017227,0.0319 58.519897,-0.0239 1.69046,-0.40104 3.0389,-1.54749 4.13384,-2.84309 12.03023,-12.03022 24.06046,-24.06046 36.09069,-36.09069 0.37025,-1.09144 0.59044,-2.29816 0.61423,-3.46638 -0.21868,-1.50062 -1.31489,-2.69584 -1.88638,-4.07917 -13.9941,-26.771351 -27.98819,-53.542698 -41.98228,-80.314046 -1.11691,-0.898357 -2.54928,-1.987704 -4.14885,-1.888162 z m -47.286702,5.405737 c 15.576241,0.09798 31.153142,-0.03946 46.729342,0.06537 1.45282,0.779684 1.61391,2.661527 2.53776,3.903588 13.41678,25.667776 26.83355,51.335556 40.25032,77.003326 0.16911,1.47331 -1.52101,2.15859 -2.26921,3.19056 -11.14229,11.14228 -22.28457,22.28457 -33.42686,33.42685 -1.78877,0.72833 -3.76529,0.0962 -5.63265,0.31848 -17.87903,0 -35.758064,0 -53.637094,0 -1.727868,-0.71124 -2.64947,-2.49609 -4.077221,-3.62227 -11.379428,-11.38037 -22.758863,-22.76073 -34.138298,-34.14111 -0.583278,-1.30196 0.753957,-2.428 1.174417,-3.57443 13.558421,-25.347169 27.116842,-50.694318 40.67526,-76.041482 0.446418,-0.498658 1.190537,-0.532451 1.814234,-0.528913 z"/>
      <path id="path942" style="opacity:0.998;fill:url(#linearGradient992);fill-opacity:1;stroke:#ffffff;stroke-width:0.577825;stroke-linecap:butt;stroke-linejoin:miter;stroke-miterlimit:4;stroke-dasharray:none;stroke-opacity:1" d="m 43.195541,126.51927 c 10.969078,10.96998 21.938157,21.93997 32.90722,32.90997 0.309965,0.30999 0.707018,0.23719 0.886842,-0.1626 16.276927,-36.1879 32.553857,-72.375789 48.830777,-108.563679 0.17982,-0.399796 -0.0298,-0.723895 -0.46815,-0.723895 H 84.074876 c -0.438376,0 -0.961385,0.313351 -1.168174,0.69989 -13.299325,24.859707 -26.598654,49.719424 -39.89798,74.579134 -0.206789,0.38654 -0.123147,0.95119 0.186819,1.26118 z" inkscape:path-effect="#path-effect984" inkscape:original-d="m 42.634298,125.95798 c 11.34324,11.34417 22.686481,22.68836 34.029705,34.03255 16.493994,-36.67049 32.987987,-73.340977 49.481977,-110.011464 -14.28828,0 -28.576568,0 -42.864854,0 -13.548941,25.3263 -27.097886,50.652614 -40.646828,75.978914 z"/>
      <path id="path940" style="opacity:0.998;fill:url(#linearGradient1010);fill-opacity:1;stroke:#ffffff;stroke-width:0.577825;stroke-linecap:butt;stroke-linejoin:miter;stroke-miterlimit:4;stroke-dasharray:none;stroke-opacity:1" d="m 126.56793,54.678208 c -6.25405,13.888122 -12.49809,27.78423 -18.74765,41.67601 -0.17986,0.399783 -0.17543,1.045925 0.01,1.443201 9.56501,20.504531 19.13003,41.009051 28.69504,61.513581 0.18533,0.39727 0.58685,0.46804 0.89683,0.15806 l 31.04458,-31.04458 c 0.30998,-0.30998 0.39666,-0.87622 0.19361,-1.26474 -13.26592,-25.38245 -26.53184,-50.7649 -39.79776,-76.147351 -0.20305,-0.388513 -0.51055,-0.378085 -0.68682,0.02329 -0.32088,0.730675 -0.64176,1.461347 -0.96264,2.192022 -0.17627,0.401377 -0.46509,1.050788 -0.64509,1.450505 z" inkscape:path-effect="#path-effect982" inkscape:original-d="m 126.89386,53.954461 c -6.47168,14.370309 -12.93236,28.749399 -19.39924,43.123625 9.78872,20.984084 19.57744,41.968164 29.36616,62.952244 10.72237,-10.72237 21.44474,-21.44474 32.16712,-32.16712 -13.51103,-25.85143 -27.02205,-51.702859 -40.53308,-77.554287 -0.53365,1.215184 -1.06731,2.430354 -1.60096,3.645538 z"/>
    </g>
  </g>
</svg>