<?xml version="1.0" encoding="UTF-8" standalone="no"?>
<!-- Created with Inkscape (http://www.inkscape.org/) -->

<svg
   width="159.99992"
   height="149.59604"
   viewBox="0 0 42.333312 39.580619"
   version="1.1"
   id="svg5"
   xml:space="preserve"
   inkscape:version="1.2.1 (9c6d41e410, 2022-07-14)"
   sodipodi:docname="logo.svg"
   xmlns:inkscape="http://www.inkscape.org/namespaces/inkscape"
   xmlns:sodipodi="http://sodipodi.sourceforge.net/DTD/sodipodi-0.dtd"
   xmlns="http://www.w3.org/2000/svg"
   xmlns:svg="http://www.w3.org/2000/svg"><sodipodi:namedview
     id="namedview7"
     pagecolor="#505050"
     bordercolor="#ffffff"
     borderopacity="1"
     inkscape:showpageshadow="0"
     inkscape:pageopacity="0"
     inkscape:pagecheckerboard="1"
     inkscape:deskcolor="#505050"
     inkscape:document-units="px"
     showgrid="false"
     inkscape:zoom="4"
     inkscape:cx="106.75"
     inkscape:cy="90.125"
     inkscape:window-width="1366"
     inkscape:window-height="704"
     inkscape:window-x="1280"
     inkscape:window-y="40"
     inkscape:window-maximized="1"
     inkscape:current-layer="layer1"
     showguides="false" /><defs
     id="defs2"><linearGradient
       id="linearGradient3279"
       inkscape:swatch="solid"><stop
         style="stop-color:#e8adad;stop-opacity:1;"
         offset="0"
         id="stop3277" /></linearGradient></defs><g
     inkscape:label="Layer 1"
     inkscape:groupmode="layer"
     id="layer1"
     transform="translate(-148.16666,-75.98886)"><g
       id="g12675"
       transform="matrix(0.17414743,0,0,0.17597238,-231.90233,-211.11668)"
       style="stroke-width:1.07958"
       clip-path="none"
       inkscape:export-filename="logo.svg"
       inkscape:export-xdpi="96"
       inkscape:export-ydpi="96"><path
         id="path12667"
         style="fill:#ebd04d;fill-opacity:1;stroke:none;stroke-width:0;stroke-linejoin:round;stroke-dasharray:none;stroke-opacity:1"
         d="m 2189.3781,1799.8002 c 14.6479,14.6478 29.2957,29.2957 43.9436,43.9436 7.0244,7.0244 20.772,12.7189 30.7061,12.7189 h 79.9442 c 9.9341,0 23.6817,-5.6945 30.7061,-12.7189 14.6479,-14.6479 29.2957,-29.2958 43.9436,-43.9436 7.0244,-7.0244 9.0357,-19.8804 4.4922,-28.7145 -21.1811,-41.1842 -42.3623,-82.3683 -63.5434,-123.5525 -4.5434,-8.8342 -16.2798,-15.9957 -26.2138,-15.9957 h -58.7136 c -9.934,0 -21.6704,7.1615 -26.2138,15.9957 -21.1812,41.1842 -42.3623,82.3683 -63.5435,123.5525 -4.5434,8.8341 -2.5321,21.6901 4.4923,28.7145 z" /><path
         id="path12669"
         style="fill:#1a1a1a;fill-opacity:1;stroke:none;stroke-width:0;stroke-linejoin:round;stroke-dasharray:none;stroke-opacity:1"
         d="m 2194.1861,1795.37 c 15.0068,15.0068 30.0136,30.0136 45.0204,45.0204 5.2683,5.2683 15.579,9.5392 23.0295,9.5392 h 83.5277 c 7.4506,0 17.7613,-4.2709 23.0296,-9.5392 15.0068,-15.0068 30.0136,-30.0136 45.0204,-45.0204 5.2683,-5.2683 6.7767,-14.9102 3.369,-21.5358 -21.2187,-41.2556 -42.4374,-82.5113 -63.6562,-123.7669 -3.4077,-6.6256 -12.21,-11.9967 -19.6605,-11.9967 h -59.7322 c -7.4506,0 -16.2529,5.3711 -19.6606,11.9967 -21.2187,41.2556 -42.4374,82.5113 -63.6561,123.7669 -3.4077,6.6256 -1.8993,16.2675 3.369,21.5358 z" /><path
         id="path12671"
         style="fill:#fbfbfb;fill-opacity:1;stroke:none;stroke-width:0;stroke-linejoin:round;stroke-dasharray:none;stroke-opacity:1"
         d="m 2367.4891,1832.4564 39.3968,-39.3968 c 4.683,-4.6829 6.0236,-13.2534 2.9944,-19.1428 -19.7105,-38.3216 -39.4212,-76.643 -59.1318,-114.9646 -3.0292,-5.8893 -7.738,-5.7905 -10.5175,0.2207 l -27.5993,59.69 a 25.93441,25.93441 0 0 0 0,21.7686 l 41.3456,89.4199 a 8.3676498,8.3676498 0 0 0 13.5118,2.405 z" /><path
         id="path12673"
         style="fill:#fbfbfb;fill-opacity:1;stroke:none;stroke-width:0;stroke-linejoin:round;stroke-dasharray:none;stroke-opacity:1"
         d="m 2327.7791,1644.6037 h -51.1567 c -6.6227,0 -14.4471,4.7743 -17.4763,10.6636 -20.3422,39.5498 -40.6844,79.0997 -61.0267,118.6495 -3.0291,5.8894 -1.6885,14.4599 2.9945,19.1428 l 39.3968,39.3968 a 8.3677105,8.3677105 0 0 0 13.5119,-2.405 l 80.7153,-174.5634 a 7.6666464,7.6666464 0 0 0 -6.9588,-10.8843 z" /></g></g></svg>
