<?xml version="1.0" encoding="UTF-8" standalone="no"?>
<!-- Created with Inkscape (http://www.inkscape.org/) -->

<svg
   width="40.000011"
   height="34.654049"
   viewBox="0 0 10.583336 9.1688838"
   version="1.1"
   id="svg5"
   xml:space="preserve"
   inkscape:version="1.2.1 (9c6d41e410, 2022-07-14)"
   sodipodi:docname="alpine_light.svg"
   inkscape:export-filename="logo_frame.svg"
   inkscape:export-xdpi="96"
   inkscape:export-ydpi="96"
   xmlns:inkscape="http://www.inkscape.org/namespaces/inkscape"
   xmlns:sodipodi="http://sodipodi.sourceforge.net/DTD/sodipodi-0.dtd"
   xmlns="http://www.w3.org/2000/svg"
   xmlns:svg="http://www.w3.org/2000/svg"><sodipodi:namedview
     id="namedview7"
     pagecolor="#505050"
     bordercolor="#ffffff"
     borderopacity="1"
     inkscape:showpageshadow="0"
     inkscape:pageopacity="0"
     inkscape:pagecheckerboard="1"
     inkscape:deskcolor="#505050"
     inkscape:document-units="px"
     showgrid="false"
     inkscape:zoom="4.0000001"
     inkscape:cx="39.249999"
     inkscape:cy="22.374999"
     inkscape:window-width="1366"
     inkscape:window-height="704"
     inkscape:window-x="1280"
     inkscape:window-y="40"
     inkscape:window-maximized="1"
     inkscape:current-layer="layer1"
     showguides="true" /><defs
     id="defs2"><linearGradient
       id="linearGradient3279"
       inkscape:swatch="solid"><stop
         style="stop-color:#e8adad;stop-opacity:1;"
         offset="0"
         id="stop3277" /></linearGradient></defs><g
     inkscape:label="Portfolio"
     inkscape:groupmode="layer"
     id="layer1"
     inkscape:highlight-color="#ffffff"
     transform="translate(-87.504014,-424.79727)"><g
       id="g8365"
       transform="matrix(0.02067057,0,0,0.02067057,87.504019,424.09004)"
       style="fill:#b3b3b3;fill-opacity:1"><g
         transform="matrix(3.4385494,0,0,-3.4385494,185.54412,310.14684)"
         style="fill:#b3b3b3;fill-opacity:1"
         id="g44"
         inkscape:export-filename="alpine.png"
         inkscape:export-xdpi="96"
         inkscape:export-ydpi="96"><path
           d="M 0,0 V 15.7 L -11.3,4.4 c 1.22,-0.847 2.36,-1.54 3.44,-2.11 1.08,-0.567 2.09,-1 3.03,-1.34 C -3.889,0.616 -3.02,0.388 -2.21,0.24 -1.406,0.093 -0.67,0.027 0,0.018 m 57.8,1.3 c 0.02,-0.017 0.13,-0.11 0.333,-0.239 0.204,-0.13 0.502,-0.297 0.898,-0.462 0.395,-0.164 0.889,-0.327 1.48,-0.448 0.596,-0.122 1.29,-0.202 2.1,-0.202 0.671,0 1.41,0.059 2.22,0.2 0.812,0.142 1.69,0.367 2.64,0.699 0.953,0.333 1.98,0.773 3.07,1.34 1.09,0.572 2.26,1.28 3.5,2.14 l -8.57,8.4 -28.4,28.5 -12.5,-12.5 -16.8,17.3 -42.2,-41.7 c 1.24,-0.86 2.4,-1.56 3.49,-2.14 1.09,-0.571 2.12,-1.01 3.07,-1.34 0.951,-0.332 1.83,-0.557 2.64,-0.698 0.81,-0.142 1.55,-0.201 2.22,-0.201 0.804,0 1.5,0.08 2.1,0.202 0.596,0.121 1.09,0.284 1.48,0.449 0.396,0.164 0.693,0.331 0.897,0.461 0.204,0.13 0.314,0.223 0.334,0.24 l 19.1,19.1 6.81,6.53 18.9,-18.9 6.59,-6.78 c 0.02,-0.017 0.13,-0.11 0.334,-0.239 0.204,-0.13 0.501,-0.297 0.897,-0.462 0.396,-0.164 0.89,-0.327 1.48,-0.448 0.596,-0.122 1.3,-0.202 2.1,-0.202 0.67,0 1.41,0.059 2.22,0.2 0.811,0.142 1.69,0.367 2.64,0.699 0.952,0.333 1.98,0.773 3.07,1.34 1.09,0.572 2.26,1.28 3.5,2.14 l -15.1,14.8 2.82,2.82 13.1,-13.1 7.64,-7.57 m -0.163,79 37.2,-64.5 -37.2,-64.5 h -74.5 l -37.2,64.5 37.2,64.5 z"
           style="fill:#b3b3b3;fill-opacity:1"
           id="path42" /></g><g
         transform="matrix(1.25,0,0,-1.25,111.2,76.55875)"
         style="fill:#b3b3b3;fill-opacity:1"
         id="g48" /></g></g><style
     type="text/css"
     id="style26">
	.specularity {opacity:0.5;}
	.low-specularity {opacity:0.25;}
	.full-specularity {opacity:1;}
	.black {fill:#000000;}
	.white {fill:#ffffff;}
	.outline-big {stroke-width:16;stroke:none;opacity:0.1;fill:none;}
	.outline-small {stroke-width:8;stroke:none;opacity:0.2;fill:none;}
	.stroke-highlight {fill:none;stroke:none;opacity:0.2;}
       	.base-shadow 	{fill:black;opacity:75;}
	</style></svg>
