<?xml version="1.0" encoding="UTF-8" standalone="no"?>
<!-- Created with Inkscape (http://www.inkscape.org/) -->

<svg
   width="35.544926"
   height="40.001076"
   viewBox="0 0 9.4045947 10.583618"
   version="1.1"
   id="svg5"
   xml:space="preserve"
   inkscape:version="1.2.1 (9c6d41e410, 2022-07-14)"
   sodipodi:docname="cpp_light.svg"
   inkscape:export-filename="logo_frame.svg"
   inkscape:export-xdpi="96"
   inkscape:export-ydpi="96"
   xmlns:inkscape="http://www.inkscape.org/namespaces/inkscape"
   xmlns:sodipodi="http://sodipodi.sourceforge.net/DTD/sodipodi-0.dtd"
   xmlns="http://www.w3.org/2000/svg"
   xmlns:svg="http://www.w3.org/2000/svg"><sodipodi:namedview
     id="namedview7"
     pagecolor="#505050"
     bordercolor="#ffffff"
     borderopacity="1"
     inkscape:showpageshadow="0"
     inkscape:pageopacity="0"
     inkscape:pagecheckerboard="1"
     inkscape:deskcolor="#505050"
     inkscape:document-units="px"
     showgrid="false"
     inkscape:zoom="4.0000001"
     inkscape:cx="69.749998"
     inkscape:cy="36.874999"
     inkscape:window-width="1366"
     inkscape:window-height="704"
     inkscape:window-x="1280"
     inkscape:window-y="40"
     inkscape:window-maximized="1"
     inkscape:current-layer="layer1"
     showguides="true" /><defs
     id="defs2"><linearGradient
       id="linearGradient3279"
       inkscape:swatch="solid"><stop
         style="stop-color:#e8adad;stop-opacity:1;"
         offset="0"
         id="stop3277" /></linearGradient></defs><g
     inkscape:label="Portfolio"
     inkscape:groupmode="layer"
     id="layer1"
     inkscape:highlight-color="#ffffff"
     transform="translate(-109.70035,-424.0899)"><path
       id="path8019"
       style="fill:#b3b3b3;fill-opacity:1;stroke-width:0.0307343"
       d="m 114.40291,424.08989 c -0.14763,0 -0.29575,0.0325 -0.40773,0.0971 l -3.88762,2.24482 c -0.22399,0.1293 -0.40721,0.44676 -0.40721,0.70539 v 4.48913 c 0,0.12933 0.0455,0.27318 0.11938,0.40101 0.0738,0.12782 0.17586,0.23974 0.28783,0.30437 l 3.88762,2.24482 c 0.22396,0.12933 0.59098,0.12933 0.81494,0 l 3.88762,-2.24482 c 0.112,-0.0647 0.21405,-0.17652 0.28784,-0.30437 0.0738,-0.12783 0.11937,-0.27168 0.11937,-0.40101 v -4.48913 c 0,-0.12933 -0.0455,-0.27371 -0.11937,-0.40153 -0.0738,-0.12786 -0.17587,-0.2392 -0.28784,-0.30386 l -3.88762,-2.24482 c -0.11198,-0.0647 -0.25959,-0.0971 -0.40721,-0.0971 z m 0,2.15697 c 1.11541,0 2.15545,0.60008 2.71456,1.56631 l -1.3565,0.78497 c -0.27984,-0.48364 -0.80023,-0.78393 -1.35806,-0.78393 -0.86431,0 -1.56786,0.70303 -1.56786,1.56734 0,0.86428 0.70355,1.56787 1.56786,1.56787 0.55789,0 1.07819,-0.30073 1.35806,-0.78445 l 1.3565,0.78496 c -0.55912,0.96632 -1.59909,1.56683 -2.71456,1.56683 -1.72859,0 -3.13521,-1.40662 -3.13521,-3.13521 0,-1.72859 1.40662,-3.13469 3.13521,-3.13469 z m 2.43809,2.61224 h 0.3483 v 0.3483 h 0.3483 v 0.3483 h -0.3483 v 0.3483 h -0.3483 v -0.3483 h -0.3483 v -0.3483 h 0.3483 z m 1.30638,0 h 0.3483 v 0.3483 h 0.3483 v 0.3483 h -0.3483 v 0.3483 h -0.3483 v -0.3483 h -0.34881 v -0.3483 h 0.34881 z" /></g><style
     type="text/css"
     id="style26">
	.specularity {opacity:0.5;}
	.low-specularity {opacity:0.25;}
	.full-specularity {opacity:1;}
	.black {fill:#000000;}
	.white {fill:#ffffff;}
	.outline-big {stroke-width:16;stroke:none;opacity:0.1;fill:none;}
	.outline-small {stroke-width:8;stroke:none;opacity:0.2;fill:none;}
	.stroke-highlight {fill:none;stroke:none;opacity:0.2;}
       	.base-shadow 	{fill:black;opacity:75;}
	</style></svg>
