<?xml version="1.0" encoding="UTF-8" standalone="no"?>
<!-- Created with Inkscape (http://www.inkscape.org/) -->

<svg
   width="39.999981"
   height="28.763649"
   viewBox="0 0 10.583328 7.6103821"
   version="1.1"
   id="svg5"
   xml:space="preserve"
   inkscape:version="1.2.1 (9c6d41e410, 2022-07-14)"
   sodipodi:docname="docker_light.svg"
   inkscape:export-filename="logo_frame.svg"
   inkscape:export-xdpi="96"
   inkscape:export-ydpi="96"
   xmlns:inkscape="http://www.inkscape.org/namespaces/inkscape"
   xmlns:sodipodi="http://sodipodi.sourceforge.net/DTD/sodipodi-0.dtd"
   xmlns="http://www.w3.org/2000/svg"
   xmlns:svg="http://www.w3.org/2000/svg"><sodipodi:namedview
     id="namedview7"
     pagecolor="#505050"
     bordercolor="#ffffff"
     borderopacity="1"
     inkscape:showpageshadow="0"
     inkscape:pageopacity="0"
     inkscape:pagecheckerboard="1"
     inkscape:deskcolor="#505050"
     inkscape:document-units="px"
     showgrid="false"
     inkscape:zoom="1"
     inkscape:cx="-66.999998"
     inkscape:cy="200.49999"
     inkscape:window-width="1366"
     inkscape:window-height="704"
     inkscape:window-x="1280"
     inkscape:window-y="40"
     inkscape:window-maximized="1"
     inkscape:current-layer="layer1"
     showguides="true" /><defs
     id="defs2"><linearGradient
       id="linearGradient3279"
       inkscape:swatch="solid"><stop
         style="stop-color:#e8adad;stop-opacity:1;"
         offset="0"
         id="stop3277" /></linearGradient></defs><g
     inkscape:label="Portfolio"
     inkscape:groupmode="layer"
     id="layer1"
     inkscape:highlight-color="#ffffff"
     transform="translate(-240.5793,-425.57653)"><g
       id="g786"
       transform="matrix(0.15843248,0,0,0.15843248,398.28055,385.89522)"
       style="fill:#aaaaaa;fill-opacity:1"><path
         style="fill:#aaaaaa;fill-opacity:1;stroke-width:1.72789"
         d="m -976.44689,259.10155 h -6.73878 v 6.73878 h 6.73878 z"
         id="path340" /><path
         style="fill:#aaaaaa;fill-opacity:1;stroke-width:1.72789"
         d="m -967.98023,259.10155 h -6.73877 v 6.73878 h 6.73877 z"
         id="path338" /><path
         style="fill:#aaaaaa;fill-opacity:1;stroke-width:1.72789"
         d="m -984.74077,267.56822 h -6.73878 v 6.73877 h 6.73878 z"
         id="path336" /><path
         style="fill:#aaaaaa;fill-opacity:1;stroke-width:1.72789"
         d="m -967.98023,267.56822 h -6.73877 v 6.73877 h 6.73877 z"
         id="path334" /><path
         style="fill:#aaaaaa;fill-opacity:1;stroke-width:1.72789"
         d="m -976.44689,267.56822 h -6.73878 v 6.73877 h 6.73878 z"
         id="path332" /><path
         style="fill:#aaaaaa;fill-opacity:1;stroke-width:1.72789"
         d="m -951.39247,267.56822 h -6.73878 v 6.73877 h 6.73878 z"
         id="path330" /><path
         style="fill:#aaaaaa;fill-opacity:1;stroke-width:1.72789"
         d="m -959.68635,250.4621 h -6.73878 v 6.73877 h 6.73878 z"
         id="path328" /><path
         style="fill:#aaaaaa;fill-opacity:1;stroke-width:1.72789"
         d="m -959.68635,259.10155 h -6.73878 v 6.73878 h 6.73878 z"
         id="path326" /><path
         style="fill:#aaaaaa;fill-opacity:1;stroke-width:1.72789"
         d="m -959.68635,267.56822 h -6.73878 v 6.73877 h 6.73878 z"
         id="path324" /><path
         style="fill:#aaaaaa;fill-opacity:1;stroke-width:1.72789"
         d="m -937.39655,270.33284 c -0.34558,-2.76462 -2.07347,-5.01088 -4.31973,-6.73877 l -0.86395,-0.69116 -0.69115,0.86395 c -1.38232,1.5551 -1.90068,4.31973 -1.72789,6.3932 0.17278,1.5551 0.69115,3.1102 1.5551,4.31972 -0.69116,0.34558 -1.5551,0.69116 -2.24626,1.03674 -1.5551,0.51837 -3.11021,0.69115 -4.66531,0.69115 h -44.75238 l -0.17279,1.03674 c -0.34558,3.28299 0.17279,6.73878 1.5551,9.84898 l 0.69116,1.20952 v 0.17279 c 4.14694,6.91157 11.57687,10.02177 19.69796,10.02177 15.55102,0 28.33742,-6.73877 34.38503,-21.25306 3.97415,0.17279 7.9483,-0.86395 9.84898,-4.66531 l 0.51837,-0.86394 -0.86394,-0.51837 c -2.24626,-1.38231 -5.35647,-1.5551 -7.9483,-0.86395 z"
         id="path322" /></g></g><style
     type="text/css"
     id="style26">
	.specularity {opacity:0.5;}
	.low-specularity {opacity:0.25;}
	.full-specularity {opacity:1;}
	.black {fill:#000000;}
	.white {fill:#ffffff;}
	.outline-big {stroke-width:16;stroke:none;opacity:0.1;fill:none;}
	.outline-small {stroke-width:8;stroke:none;opacity:0.2;fill:none;}
	.stroke-highlight {fill:none;stroke:none;opacity:0.2;}
       	.base-shadow 	{fill:black;opacity:75;}
	</style></svg>
