<?xml version="1.0" encoding="UTF-8" standalone="no"?>
<!-- Created with Inkscape (http://www.inkscape.org/) -->

<svg
   width="40.100502"
   height="26.421513"
   viewBox="0 0 10.609924 6.9906919"
   version="1.1"
   id="svg5"
   xml:space="preserve"
   inkscape:version="1.2.1 (9c6d41e410, 2022-07-14)"
   sodipodi:docname="ferris_light.svg"
   inkscape:export-filename="logo_frame.svg"
   inkscape:export-xdpi="96"
   inkscape:export-ydpi="96"
   xmlns:inkscape="http://www.inkscape.org/namespaces/inkscape"
   xmlns:sodipodi="http://sodipodi.sourceforge.net/DTD/sodipodi-0.dtd"
   xmlns="http://www.w3.org/2000/svg"
   xmlns:svg="http://www.w3.org/2000/svg"><sodipodi:namedview
     id="namedview7"
     pagecolor="#505050"
     bordercolor="#ffffff"
     borderopacity="1"
     inkscape:showpageshadow="0"
     inkscape:pageopacity="0"
     inkscape:pagecheckerboard="1"
     inkscape:deskcolor="#505050"
     inkscape:document-units="px"
     showgrid="false"
     inkscape:zoom="1"
     inkscape:cx="-265.99999"
     inkscape:cy="23.499999"
     inkscape:window-width="1366"
     inkscape:window-height="704"
     inkscape:window-x="1280"
     inkscape:window-y="40"
     inkscape:window-maximized="1"
     inkscape:current-layer="layer1"
     showguides="true" /><defs
     id="defs2"><linearGradient
       id="linearGradient3279"
       inkscape:swatch="solid"><stop
         style="stop-color:#e8adad;stop-opacity:1;"
         offset="0"
         id="stop3277" /></linearGradient></defs><g
     inkscape:label="Portfolio"
     inkscape:groupmode="layer"
     id="layer1"
     inkscape:highlight-color="#ffffff"
     transform="translate(-174.37543,-425.88638)"><g
       id="g9631"
       transform="translate(-18.214669,26.686016)"><path
         id="path8658"
         style="clip-rule:evenodd;fill:#b3b3b3;fill-opacity:1;fill-rule:nonzero;stroke-width:0.00951556;stroke-linejoin:round;stroke-miterlimit:1.41421"
         d="m 197.86957,402.21421 c -1.15361,0 -2.20161,0.13881 -2.97759,0.36483 v 1.93063 c 0.25015,0.0729 0.52879,0.13666 0.82992,0.18966 0.11928,-0.16156 0.99329,-1.25899 2.0805,0.17466 0.0224,1.1e-4 0.0446,5.2e-4 0.0672,5.2e-4 0.0489,0 0.0977,-5.4e-4 0.14625,-10e-4 1.10659,-1.51808 1.93966,-0.31188 2.03398,-0.18191 v 0.002 c 0.42295,-0.076 0.80036,-0.17341 1.11621,-0.28732 v -1.72393 c -0.79397,-0.28633 -1.97606,-0.46818 -3.29644,-0.46818 z m 1.17926,0.37052 c 0.12544,-0.003 0.26806,0.0453 0.41031,0.20102 0,0 0.32514,0.60436 0,0.9064 0,0 -0.5323,0.42291 -0.82785,0 0,0 -0.35469,-0.33249 0,-0.9064 0,0 0.17807,-0.19493 0.41754,-0.20102 z m -1.92288,0.007 c 0.21043,-10e-4 0.45932,0.0847 0.56224,0.45734 0,0 0.20294,0.81788 -0.58291,0.86403 0,0 -1.00235,-0.19311 -0.32091,-1.25109 0,0 0.15591,-0.0692 0.34158,-0.0703 z" /><g
         transform="matrix(0.00951556,0,0,0.00951556,202.35539,404.29035)"
         id="g8664"
         style="clip-rule:evenodd;fill:#b3b3b3;fill-opacity:1;fill-rule:evenodd;stroke-linejoin:round;stroke-miterlimit:1.41421">
            <path
   d="m 0,-53.32 -14.211,-29.441 c 0.073,-1.118 0.131,-2.237 0.131,-3.36 0,-33.375 -34.706,-64.135 -93.097,-88.762 V 2.643 c 27.245,-11.492 49.348,-24.317 65.156,-38.125 -4.652,18.707 -20.564,56.553 -33.25,83.168 -20.85,38.066 -28.4,71.203 -27.432,72.844 0.617,1.033 7.73,-9.94 18.219,-27.721 C -60.074,58.028 -13.82,-8.373 -4.575,-25.287 5.897,-44.461 0,-53.32 0,-53.32"
   style="fill:#b3b3b3;fill-opacity:1;fill-rule:nonzero"
   id="path8662" />
        </g><g
         transform="matrix(0.00951556,0,0,0.00951556,193.60407,404.44049)"
         id="g8668"
         style="clip-rule:evenodd;fill:#b3b3b3;fill-opacity:1;fill-rule:evenodd;stroke-linejoin:round;stroke-miterlimit:1.41421">
            <path
   d="m 0,-99.954 c 0,6.428 1.293,12.76 3.788,18.969 l -8.511,15.15 c 0,0 -6.818,8.846 5.188,27.508 10.59,16.455 63.635,80.867 91.632,114.598 12.026,17.293 20.179,27.945 20.893,26.916 1.124,-1.633 -7.476,-34.1 -31.359,-71.141 -11.144,-19.895 -24.454,-46.252 -32.442,-65.721 22.303,14.116 51.483,26.92 86.152,37.94 V -204.17 C 51.797,-177.622 0,-140.737 0,-99.954"
   style="fill:#b3b3b3;fill-opacity:1;fill-rule:nonzero"
   id="path8666" />
        </g><path
         id="path8670"
         style="clip-rule:evenodd;fill:#b3b3b3;fill-opacity:1;fill-rule:nonzero;stroke-width:0.00951556;stroke-linejoin:round;stroke-miterlimit:1.41421"
         d="m 197.8458,399.20044 c -0.0507,0 -0.098,0.0273 -0.12454,0.0723 l -0.26406,0.44442 c -0.0415,0.004 -0.0828,0.008 -0.12403,0.0129 l -0.34158,-0.38241 c -0.0346,-0.0386 -0.0862,-0.0557 -0.13591,-0.0455 -0.05,0.0104 -0.0908,0.0468 -0.10852,0.0966 l -0.17518,0.48835 c -0.0405,0.0122 -0.0809,0.0245 -0.12092,0.0377 l -0.40566,-0.30437 c -0.0413,-0.0311 -0.0952,-0.0375 -0.14211,-0.0171 -0.0468,0.0202 -0.0803,0.0646 -0.0884,0.11679 l -0.0806,0.5147 c -0.0372,0.0201 -0.0743,0.0409 -0.1111,0.062 l -0.45527,-0.21652 c -0.0462,-0.022 -0.10001,-0.0172 -0.14211,0.0124 -0.0423,0.0293 -0.067,0.0794 -0.0651,0.13229 l 0.0176,0.52245 c -0.0324,0.027 -0.0644,0.0548 -0.0961,0.0827 l -0.48783,-0.11989 c -0.0496,-0.012 -0.10157,0.003 -0.13745,0.0408 -0.0361,0.0376 -0.0509,0.0914 -0.0393,0.14314 l 0.11472,0.50901 c -0.0267,0.033 -0.0528,0.0665 -0.0786,0.10026 l -0.50126,-0.0181 c -0.0506,-0.002 -0.0988,0.0236 -0.12712,0.0677 -0.0283,0.0439 -0.0325,0.0999 -0.0114,0.14832 l 0.20774,0.4749 c -0.0202,0.0381 -0.0401,0.0767 -0.0594,0.11576 l -0.49402,0.0837 c -0.0502,0.008 -0.0921,0.0436 -0.11163,0.0925 -0.0194,0.0491 -0.0135,0.10477 0.016,0.1478 l 0.29249,0.42323 c -0.002,0.007 -0.004,0.0147 -0.007,0.0222 l -0.82579,0.87747 c 0,0 -0.12639,0.0992 0.0579,0.33228 0.16243,0.20554 0.9966,1.02047 1.43712,1.44745 0.18606,0.21675 0.31378,0.35061 0.32711,0.339 0.021,-0.0185 -0.0893,-0.41268 -0.45579,-0.8754 -0.28247,-0.41515 -0.64929,-1.05346 -0.56327,-1.12706 0,0 0.0978,-0.12408 0.29404,-0.21343 0,0 0.86734,0.3987 2.17454,0.65268 0.31255,-0.29834 0.96884,-0.69098 1.75338,0.20102 0.16235,0.005 0.32754,0.006 0.49506,0.003 0.80942,-0.97076 1.45488,-0.50819 1.74305,-0.19792 0.601,-0.13021 1.21194,-0.33181 1.81539,-0.62684 0.43874,-0.0787 0.70435,0.15658 0.70435,0.15658 0.0916,0.0531 -0.1455,0.70949 -0.34054,1.14412 -0.2653,0.49351 -0.30415,0.87857 -0.28164,0.89193 0.0142,0.008 0.11087,-0.13833 0.24856,-0.37207 0.33973,-0.47338 0.9816,-1.37607 1.09916,-1.59525 0.13327,-0.24854 0,-0.31781 0,-0.31781 l -0.88883,-0.65474 c -0.008,-0.0292 -0.0167,-0.0584 -0.0253,-0.0873 l 0.29198,-0.42323 c 0.0298,-0.043 0.0358,-0.0988 0.0165,-0.1478 -0.0194,-0.0488 -0.062,-0.0839 -0.11213,-0.0925 l -0.49351,-0.0837 c -0.0191,-0.039 -0.0393,-0.0777 -0.0594,-0.11576 l 0.20774,-0.4749 c 0.0214,-0.0484 0.0168,-0.10442 -0.0114,-0.14832 -0.0282,-0.0441 -0.0761,-0.0697 -0.12713,-0.0677 l -0.50126,0.0181 c -0.026,-0.0338 -0.0522,-0.0675 -0.0791,-0.10026 l 0.11524,-0.50901 c 0.0117,-0.0517 -0.003,-0.10559 -0.0393,-0.14314 -0.0358,-0.0374 -0.0875,-0.0529 -0.13694,-0.0408 l -0.48834,0.11989 c -0.0316,-0.0279 -0.0636,-0.0557 -0.0961,-0.0827 l 0.0176,-0.52245 c 0.002,-0.0529 -0.0228,-0.10296 -0.0651,-0.13229 -0.0423,-0.0295 -0.0958,-0.0343 -0.14211,-0.0124 l -0.45527,0.21652 c -0.0367,-0.021 -0.0738,-0.0419 -0.11111,-0.062 l -0.0806,-0.5147 c -0.008,-0.0522 -0.0414,-0.0966 -0.0884,-0.11679 -0.0468,-0.0203 -0.10046,-0.0139 -0.14159,0.0171 l -0.40618,0.30437 c -0.04,-0.0133 -0.0803,-0.0255 -0.12092,-0.0377 l -0.17467,-0.48835 c -0.0178,-0.0497 -0.059,-0.0863 -0.10904,-0.0966 -0.0498,-0.0102 -0.10082,0.007 -0.13539,0.0455 l -0.3421,0.38241 c -0.0413,-0.005 -0.0826,-0.009 -0.12402,-0.0129 l -0.26355,-0.44442 c -0.0267,-0.045 -0.0741,-0.0723 -0.12506,-0.0723 z m 1.20303,3.38429 c 0.12544,-0.003 0.26806,0.0453 0.41031,0.20102 0,0 0.32514,0.60436 0,0.9064 0,0 -0.5323,0.42291 -0.82785,0 0,0 -0.35469,-0.33249 0,-0.9064 0,0 0.17807,-0.19493 0.41754,-0.20102 z m -1.92288,0.007 c 0.21043,-10e-4 0.45932,0.0847 0.56224,0.45734 0,0 0.20294,0.81788 -0.58291,0.86403 0,0 -1.00235,-0.19311 -0.32091,-1.25109 0,0 0.15591,-0.0692 0.34158,-0.0703 z" /><g
         transform="matrix(0.00951556,0,0,0.00951556,201.37857,406.53023)"
         id="g8684"
         style="clip-rule:evenodd;fill:#b3b3b3;fill-opacity:1;fill-rule:evenodd;stroke-linejoin:round;stroke-miterlimit:1.41421">
            <path
   d="m 0,-314.014 c 0,0 -15.576,62.041 -112.453,127.238 l -27.166,6.367 c 0,0 -87.881,-160.259 -212.383,20.334 0,0 38.802,-22.591 142.822,4.92 0,0 -47.85,73.239 -144.242,70.989 0,0 92.373,110.82 232.94,-49.252 0,0 148.595,-57.463 160.646,-180.596 z"
   style="fill:#b3b3b3;fill-opacity:1;fill-rule:nonzero"
   id="path8682" />
        </g><g
         transform="matrix(0.00951556,0,0,0.00951556,199.11047,402.95405)"
         id="g8692"
         style="clip-rule:evenodd;fill:#b3b3b3;fill-opacity:1;fill-rule:evenodd;stroke-linejoin:round;stroke-miterlimit:1.41421">
            <path
   d="m 0,0.002 c 0,18.541 -10.93,33.572 -24.408,33.572 -13.477,0 -24.406,-15.031 -24.406,-33.572 0,-18.541 10.929,-33.574 24.406,-33.574 C -10.93,-33.572 0,-18.539 0,0.002"
   style="fill:#b3b3b3;fill-opacity:1;fill-rule:nonzero"
   id="path8690" />
        </g><g
         transform="matrix(0.00951556,0,0,0.00951556,197.14102,402.96565)"
         id="g8700"
         style="clip-rule:evenodd;fill:#b3b3b3;fill-opacity:1;fill-rule:evenodd;stroke-linejoin:round;stroke-miterlimit:1.41421">
            <path
   d="m 0,0 c 0,19.119 -11.27,34.627 -25.173,34.627 -13.898,0 -25.171,-15.508 -25.171,-34.627 0,-19.124 11.273,-34.627 25.171,-34.627 C -11.27,-34.627 0,-19.124 0,0"
   style="fill:#b3b3b3;fill-opacity:1;fill-rule:nonzero"
   id="path8698" />
        </g><path
         d="m 196.38578,405.11716 c 0.87384,-0.11013 1.37884,-0.12039 1.37884,-0.12039 -1.16915,-1.54232 -2.11783,-0.14601 -2.11783,-0.14601 -0.23772,-0.085 -0.48009,-0.415 -0.66111,-0.71928 l -0.72544,-0.21486 c 0.83616,1.41916 1.45869,1.44079 1.45869,1.44079 1.29615,1.66132 1.91018,0.32634 1.91018,0.32634 -0.72763,-0.0826 -1.24333,-0.56659 -1.24333,-0.56659"
         style="clip-rule:evenodd;fill:#b3b3b3;fill-opacity:1;fill-rule:nonzero;stroke-width:0.00951556;stroke-linejoin:round;stroke-miterlimit:1.41421"
         id="path8702" /></g></g><style
     type="text/css"
     id="style26">
	.specularity {opacity:0.5;}
	.low-specularity {opacity:0.25;}
	.full-specularity {opacity:1;}
	.black {fill:#000000;}
	.white {fill:#ffffff;}
	.outline-big {stroke-width:16;stroke:none;opacity:0.1;fill:none;}
	.outline-small {stroke-width:8;stroke:none;opacity:0.2;fill:none;}
	.stroke-highlight {fill:none;stroke:none;opacity:0.2;}
       	.base-shadow 	{fill:black;opacity:75;}
	</style></svg>
