<?xml version="1.0" encoding="UTF-8" standalone="no"?>
<svg
   viewBox="0 0 63.999999 64.000001"
   height="64"
   width="64"
   xml:space="preserve"
   id="svg2"
   version="1.1"
   sodipodi:docname="github.svg"
   inkscape:version="1.2 (dc2aedaf03, 2022-05-15)"
   xmlns:inkscape="http://www.inkscape.org/namespaces/inkscape"
   xmlns:sodipodi="http://sodipodi.sourceforge.net/DTD/sodipodi-0.dtd"
   xmlns="http://www.w3.org/2000/svg"
   xmlns:svg="http://www.w3.org/2000/svg"
   xmlns:rdf="http://www.w3.org/1999/02/22-rdf-syntax-ns#"
   xmlns:cc="http://creativecommons.org/ns#"
   xmlns:dc="http://purl.org/dc/elements/1.1/"><sodipodi:namedview
     pagecolor="#ffffff"
     bordercolor="#666666"
     borderopacity="1"
     objecttolerance="10"
     gridtolerance="10"
     guidetolerance="10"
     inkscape:pageopacity="0"
     inkscape:pageshadow="2"
     inkscape:window-width="1366"
     inkscape:window-height="716"
     id="namedview185"
     showgrid="false"
     inkscape:zoom="4.2120038"
     inkscape:cx="35.612504"
     inkscape:cy="15.669502"
     inkscape:window-x="1272"
     inkscape:window-y="-8"
     inkscape:window-maximized="1"
     inkscape:current-layer="svg2"
     inkscape:showpageshadow="0"
     inkscape:pagecheckerboard="1"
     inkscape:deskcolor="#d1d1d1" /><metadata
     id="metadata8"><rdf:RDF><cc:Work
         rdf:about=""><dc:format>image/svg+xml</dc:format><dc:type
           rdf:resource="http://purl.org/dc/dcmitype/StillImage" /></cc:Work></rdf:RDF></metadata><defs
     id="defs6"><clipPath
       id="clipPath20"
       clipPathUnits="userSpaceOnUse"><path
         id="path18"
         d="M 0,551.986 H 530.973 V 0 H 0 Z" /></clipPath></defs><path
     id="path28"
     style="fill:#ffffff;fill-opacity:1;fill-rule:evenodd;stroke:none;stroke-width:1.33334"
     d="M 31.999994,-6.4422132e-7 C 14.329199,-6.4422132e-7 -5.7608e-6,14.326024 -5.7608e-6,31.999999 c 0,14.137908 9.1689738608,26.132874 21.8835527608,30.364178 1.599258,0.296218 2.186395,-0.694177 2.186395,-1.539378 0,-0.762536 -0.02968,-3.283832 -0.04345,-5.95774 -8.90243,1.935748 -10.780949,-3.775585 -10.780949,-3.775585 -1.455654,-3.698218 -3.5530241,-4.682255 -3.5530241,-4.682255 -2.9033583,-1.98609 0.2188514,-1.945287 0.2188514,-1.945287 3.2133537,0.22574 4.9053457,3.298139 4.9053457,3.298139 2.854077,4.891568 7.48599,3.477247 9.312048,2.659601 0.28774,-2.067695 1.116514,-3.479896 2.031662,-4.278996 -7.107637,-0.808637 -14.57932,-3.553023 -14.57932,-15.814532 0,-3.493145 1.25005,-6.348281 3.297079,-8.589256 -0.332252,-0.805988 -1.427569,-4.060675 0.310525,-8.468438 0,0 2.687156,-0.859508 8.801749,3.280652 2.55256,-0.709015 5.290057,-1.064582 8.009538,-1.0773 2.719481,0.01272 5.459098,0.368285 8.016427,1.0773 6.107704,-4.14016 8.791151,-3.280652 8.791151,-3.280652 1.741803,4.407763 0.646486,7.66245 0.314234,8.468438 2.051799,2.240975 3.29284,5.096111 3.29284,8.589256 0,12.291183 -7.485991,14.996886 -14.611645,15.789097 1.147778,0.993045 2.170498,2.940452 2.170498,5.925945 0,4.281646 -0.03656,7.727628 -0.03656,8.781613 0,0.852089 0.575479,1.849374 2.197523,1.535669 12.70822,-4.236074 21.865536,-16.2268 21.865536,-30.360469 0,-17.673975 -14.327085,-31.99999964422132 -32,-31.99999964422132" /><g
     transform="matrix(0.5299066,0,0,-0.5299066,12.12023,45.944599)"
     id="g30"
     style="fill:#ffffff;stroke-width:2.51617"><path
       id="path32"
       style="fill:#ffffff;fill-opacity:1;fill-rule:nonzero;stroke:none;stroke-width:2.51617"
       d="m 0,0 c -0.133,-0.301 -0.605,-0.391 -1.035,-0.185 -0.439,0.198 -0.684,0.607 -0.542,0.908 0.13,0.308 0.602,0.394 1.04,0.188 C -0.099,0.714 0.151,0.301 0,0" /></g><g
     transform="matrix(0.5299066,0,0,-0.5299066,13.416539,47.390449)"
     id="g34"
     style="fill:#ffffff;stroke-width:2.51617"><path
       id="path36"
       style="fill:#ffffff;fill-opacity:1;fill-rule:nonzero;stroke:none;stroke-width:2.51617"
       d="M 0,0 C -0.288,-0.267 -0.852,-0.143 -1.233,0.279 -1.629,0.7 -1.702,1.264 -1.41,1.534 -1.113,1.801 -0.567,1.676 -0.172,1.255 0.224,0.829 0.301,0.271 0,0" /></g><g
     transform="matrix(0.5299066,0,0,-0.5299066,14.678196,49.233196)"
     id="g38"
     style="fill:#ffffff;stroke-width:2.51617"><path
       id="path40"
       style="fill:#ffffff;fill-opacity:1;fill-rule:nonzero;stroke:none;stroke-width:2.51617"
       d="M 0,0 C -0.37,-0.258 -0.976,-0.017 -1.35,0.52 -1.72,1.058 -1.72,1.702 -1.341,1.96 -0.967,2.218 -0.37,1.985 0.009,1.453 0.378,0.907 0.378,0.263 0,0" /></g><g
     transform="matrix(0.5299066,0,0,-0.5299066,16.406591,51.013897)"
     id="g42"
     style="fill:#ffffff;stroke-width:2.51617"><path
       id="path44"
       style="fill:#ffffff;fill-opacity:1;fill-rule:nonzero;stroke:none;stroke-width:2.51617"
       d="M 0,0 C -0.331,-0.365 -1.036,-0.267 -1.552,0.232 -2.08,0.718 -2.227,1.409 -1.896,1.774 -1.56,2.14 -0.851,2.037 -0.331,1.543 0.193,1.057 0.352,0.361 0,0" /></g><g
     transform="matrix(0.5299066,0,0,-0.5299066,18.791171,52.047795)"
     id="g46"
     style="fill:#ffffff;stroke-width:2.51617"><path
       id="path48"
       style="fill:#ffffff;fill-opacity:1;fill-rule:nonzero;stroke:none;stroke-width:2.51617"
       d="m 0,0 c -0.147,-0.473 -0.825,-0.687 -1.509,-0.486 -0.683,0.207 -1.13,0.76 -0.992,1.238 0.142,0.476 0.824,0.7 1.513,0.485 C -0.306,1.031 0.142,0.481 0,0" /></g><g
     transform="matrix(0.5299066,0,0,-0.5299066,21.410183,52.239305)"
     id="g50"
     style="fill:#ffffff;stroke-width:2.51617"><path
       id="path52"
       style="fill:#ffffff;fill-opacity:1;fill-rule:nonzero;stroke:none;stroke-width:2.51617"
       d="m 0,0 c 0.017,-0.498 -0.563,-0.911 -1.281,-0.92 -0.722,-0.016 -1.307,0.387 -1.315,0.877 0,0.503 0.568,0.911 1.289,0.924 C -0.589,0.895 0,0.494 0,0" /></g><g
     transform="matrix(0.5299066,0,0,-0.5299066,23.847009,51.824758)"
     id="g54"
     style="fill:#ffffff;stroke-width:2.51617"><path
       id="path56"
       style="fill:#ffffff;fill-opacity:1;fill-rule:nonzero;stroke:none;stroke-width:2.51617"
       d="m 0,0 c 0.086,-0.485 -0.413,-0.984 -1.126,-1.117 -0.701,-0.129 -1.35,0.172 -1.439,0.653 -0.087,0.498 0.42,0.997 1.121,1.126 C -0.73,0.786 -0.091,0.494 0,0" /></g></svg>
