<?xml version="1.0" encoding="UTF-8" standalone="no"?>
<!-- Created with Inkscape (http://www.inkscape.org/) -->

<svg
   width="112.1011"
   height="110.89433"
   viewBox="0 0 29.660083 29.34079"
   version="1.1"
   id="svg5"
   xml:space="preserve"
   inkscape:version="1.2.1 (9c6d41e410, 2022-07-14)"
   sodipodi:docname="portfolio.svg"
   inkscape:export-filename="logo_frame.svg"
   inkscape:export-xdpi="96"
   inkscape:export-ydpi="96"
   xmlns:inkscape="http://www.inkscape.org/namespaces/inkscape"
   xmlns:sodipodi="http://sodipodi.sourceforge.net/DTD/sodipodi-0.dtd"
   xmlns:xlink="http://www.w3.org/1999/xlink"
   xmlns="http://www.w3.org/2000/svg"
   xmlns:svg="http://www.w3.org/2000/svg"><sodipodi:namedview
     id="namedview7"
     pagecolor="#505050"
     bordercolor="#ffffff"
     borderopacity="1"
     inkscape:showpageshadow="0"
     inkscape:pageopacity="0"
     inkscape:pagecheckerboard="1"
     inkscape:deskcolor="#505050"
     inkscape:document-units="px"
     showgrid="false"
     inkscape:zoom="0.1767767"
     inkscape:cx="-463.86205"
     inkscape:cy="828.72915"
     inkscape:window-width="1366"
     inkscape:window-height="704"
     inkscape:window-x="1280"
     inkscape:window-y="40"
     inkscape:window-maximized="1"
     inkscape:current-layer="layer1"
     showguides="true" /><defs
     id="defs2"><linearGradient
       id="linearGradient3279"
       inkscape:swatch="solid"><stop
         style="stop-color:#e8adad;stop-opacity:1;"
         offset="0"
         id="stop3277" /></linearGradient><linearGradient
       id="WhiteTransparent"
       gradientUnits="userSpaceOnUse"><stop
         style="stop-color:white;stop-opacity:1"
         offset="0"
         id="stop7" /><stop
         style="stop-color:white;stop-opacity:0"
         offset="1"
         id="stop9" /></linearGradient><linearGradient
       gradientUnits="userSpaceOnUse"
       id="linearGradient5785"><stop
         id="stop5787"
         offset="0"
         style="stop-color:#c0cdf9;stop-opacity:1" /><stop
         id="stop5789"
         offset="1"
         style="stop-color:#07092d;stop-opacity:0.28804347" /></linearGradient><linearGradient
       id="IcecapTip-7"
       xlink:href="#WhiteTransparent"
       x1="60"
       y1="20"
       x2="90"
       y2="50"
       gradientUnits="userSpaceOnUse"
       gradientTransform="matrix(0.26367803,0,0,0.26359554,-69.259804,476.55788)" /><linearGradient
       gradientUnits="userSpaceOnUse"
       y2="60"
       x2="58"
       y1="35"
       x1="33"
       xlink:href="#WhiteTransparent"
       id="shinySpecular-4-5"
       gradientTransform="matrix(0.26609965,0,0,0.2660164,-69.362394,476.45687)" /><clipPath
       clipPathUnits="userSpaceOnUse"
       id="clipoutline1-1"><path
         id="outline1-6"
         d="M 54.1,12.5 12.9,54.7 C -2.7,70.3 23,69 32.3,74.9 36.6,77.7 18.5,81.3 22.2,85 c 3.6,3.7 21.7,7.1 25.3,10.7 3.6,3.7 -7.3,7.6 -3.7,11.3 3.5,3.7 11.9,0.2 13.4,8.6 1.1,6.2 15.4,3.1 21.8,-2.2 4,-3.4 -6.9,-3.4 -3.3,-7.1 9,-9.1 17,-4.1 20.3,-12.5 1.8,-4.5 -13.6,-7.7 -9.5,-10.6 9.8,-6.9 45.8,-10.4 29.2,-27 L 73,12.5 c -5.3,-5 -14,-5 -18.9,0 z m -9.9,64.7 c 0.9,0 30.8,4 19.3,7.1 -4.4,1.2 -24.6,-7.1 -19.3,-7.1 z m 57.2,16.6 c 0,2.1 16.3,3.3 15.4,-0.5 -1.3,-6.4 -13.6,-5.9 -15.4,0.5 z m -69.5,11.1 c 3.7,3.2 9.3,-0.7 11.1,-5.2 -3.6,-4.7 -16.9,0.3 -11.1,5.2 z m 67.5,-6.7 c -4.6,4.2 0.8,8.6 5.3,5.7 1.2,-0.8 -0.1,-4.7 -5.3,-5.7 z" /></clipPath><linearGradient
       inkscape:collect="always"
       xlink:href="#linearGradient5785"
       id="linearGradient9175"
       gradientUnits="userSpaceOnUse"
       x1="82.118591"
       y1="20"
       x2="60"
       y2="40" /><clipPath
       clipPathUnits="userSpaceOnUse"
       id="clipPath9086-8"><use
         id="use9088-9"
         xlink:href="#outline1-6"
         class="low-specularity"
         style="fill:#ffffff;fill-opacity:1"
         x="0"
         y="0"
         width="400"
         height="300"
         transform="translate(1.009546e-6)" /></clipPath><filter
       color-interpolation-filters="sRGB"
       inkscape:collect="always"
       id="filter8490"
       x="-0.051767562"
       y="-0.052586697"
       width="1.1035351"
       height="1.1051733"><feGaussianBlur
         inkscape:collect="always"
         stdDeviation="2.4163949"
         id="feGaussianBlur8492" /></filter><radialGradient
       inkscape:collect="always"
       xlink:href="#WhiteTransparent"
       id="radialGradient9177"
       gradientUnits="userSpaceOnUse"
       gradientTransform="matrix(0.2192682,0,0,0.14672345,-82.894798,469.81847)"
       cx="116.3104"
       cy="250.8974"
       fx="116.3104"
       fy="250.8974"
       r="30.599581" /><radialGradient
       inkscape:collect="always"
       xlink:href="#WhiteTransparent"
       id="radialGradient8574"
       cx="132.44431"
       cy="251.994"
       fx="132.44431"
       fy="251.994"
       r="30.599581"
       gradientTransform="matrix(2.003253,0,0,1.340898,-132.8752,-95.16607)"
       gradientUnits="userSpaceOnUse" /><filter
       color-interpolation-filters="sRGB"
       inkscape:collect="always"
       id="filter8732"
       x="-0.078079171"
       width="1.1561583"
       y="-0.1142207"
       height="1.2284414"><feGaussianBlur
         inkscape:collect="always"
         stdDeviation="1.9579068"
         id="feGaussianBlur8734" /></filter><radialGradient
       inkscape:collect="always"
       xlink:href="#WhiteTransparent"
       id="radialGradient8744"
       cx="210.25"
       cy="168.5"
       fx="210.25"
       fy="168.5"
       r="34.25"
       gradientTransform="matrix(0.13965665,0,0,0.05910622,-72.350706,486.46874)"
       gradientUnits="userSpaceOnUse" /><radialGradient
       inkscape:collect="always"
       xlink:href="#WhiteTransparent"
       id="radialGradient8768"
       gradientUnits="userSpaceOnUse"
       gradientTransform="matrix(1,0,0,0.4233577,0,97.16423)"
       cx="217.5"
       cy="182.08189"
       fx="217.5"
       fy="182.08189"
       r="34.25" /><filter
       color-interpolation-filters="sRGB"
       inkscape:collect="always"
       id="filter8764"
       x="-0.074262142"
       width="1.1485243"
       y="-0.1754123"
       height="1.3508246"><feGaussianBlur
         inkscape:collect="always"
         stdDeviation="2.1195652"
         id="feGaussianBlur8766" /></filter><linearGradient
       inkscape:collect="always"
       xlink:href="#WhiteTransparent"
       id="linearGradient8912"
       x1="231.625"
       y1="195.1875"
       x2="231.75"
       y2="201.5"
       gradientUnits="userSpaceOnUse" /><linearGradient
       inkscape:collect="always"
       xlink:href="#WhiteTransparent"
       id="linearGradient8910"
       x1="231.3765"
       y1="195.62131"
       x2="231.3765"
       y2="200.0714"
       gradientUnits="userSpaceOnUse" /><filter
       color-interpolation-filters="sRGB"
       inkscape:collect="always"
       id="filter8906"
       x="-0.096121542"
       width="1.1922431"
       y="-0.31690437"
       height="1.6338087"><feGaussianBlur
         inkscape:collect="always"
         stdDeviation="0.56515877"
         id="feGaussianBlur8908" /></filter><radialGradient
       inkscape:collect="always"
       xlink:href="#WhiteTransparent"
       id="radialGradient8922"
       cx="228.2188"
       cy="204.83231"
       fx="228.2188"
       fy="204.83231"
       r="14.09375"
       gradientTransform="matrix(1,0,0,0.1477455,0,174.5692)"
       gradientUnits="userSpaceOnUse" /><filter
       color-interpolation-filters="sRGB"
       inkscape:collect="always"
       id="filter8980"
       x="-0.077696316"
       width="1.1553926"
       y="-0.4728601"
       height="1.9457202"><feGaussianBlur
         inkscape:collect="always"
         stdDeviation="0.82052366"
         id="feGaussianBlur8982" /></filter><radialGradient
       inkscape:collect="always"
       xlink:href="#WhiteTransparent"
       id="radialGradient8994"
       gradientUnits="userSpaceOnUse"
       gradientTransform="matrix(1,0,0,0.1477455,0,174.5692)"
       cx="228.2188"
       cy="204.83231"
       fx="228.2188"
       fy="204.83231"
       r="14.09375" /><radialGradient
       inkscape:collect="always"
       xlink:href="#linearGradient8998"
       id="radialGradient9004"
       cx="89.875"
       cy="187.8694"
       fx="89.875"
       fy="187.8694"
       r="22.75"
       gradientTransform="matrix(0.13965665,0,0,0.05683426,-72.350706,489.06496)"
       gradientUnits="userSpaceOnUse" /><linearGradient
       inkscape:collect="always"
       id="linearGradient8998"><stop
         style="stop-color:#ffffff;stop-opacity:0.33004926"
         offset="0"
         id="stop9000" /><stop
         style="stop-color:#ffffff;stop-opacity:0;"
         offset="1"
         id="stop9002" /></linearGradient><radialGradient
       inkscape:collect="always"
       xlink:href="#WhiteTransparent"
       id="radialGradient9046"
       cx="90.28125"
       cy="230.8363"
       fx="90.28125"
       fy="230.8363"
       r="10.46875"
       gradientTransform="matrix(1.185075,-0.3283582,0.1228557,0.4433973,-45.06831,152.9216)"
       gradientUnits="userSpaceOnUse" /><filter
       color-interpolation-filters="sRGB"
       inkscape:collect="always"
       id="filter9068"
       x="-0.076179281"
       width="1.1523587"
       y="-0.16557007"
       height="1.33114"><feGaussianBlur
         inkscape:collect="always"
         stdDeviation="0.66458488"
         id="feGaussianBlur9070" /></filter><linearGradient
       inkscape:collect="always"
       xlink:href="#WhiteTransparent"
       id="linearGradient5905"
       x1="95.5"
       y1="208.1644"
       x2="153.5"
       y2="223.5"
       gradientUnits="userSpaceOnUse" /><filter
       color-interpolation-filters="sRGB"
       inkscape:collect="always"
       id="filter5983-5"
       x="-0.082508989"
       width="1.165018"
       y="-0.12233573"
       height="1.2446715"><feGaussianBlur
         inkscape:collect="always"
         stdDeviation="3.6868363"
         id="feGaussianBlur5985-9" /></filter><linearGradient
       inkscape:collect="always"
       xlink:href="#linearGradient5793-6"
       id="linearGradient5801"
       x1="57.225201"
       y1="76.246338"
       x2="53.63158"
       y2="84.480324"
       gradientUnits="userSpaceOnUse"
       gradientTransform="matrix(0.23342295,0,0,0.23334993,-67.894686,478.99069)" /><linearGradient
       inkscape:collect="always"
       id="linearGradient5793-6"><stop
         style="stop-color:#eeeeec;stop-opacity:1;"
         offset="0"
         id="stop5795-2" /><stop
         style="stop-color:#eeeeec;stop-opacity:0;"
         offset="1"
         id="stop5797-1" /></linearGradient><radialGradient
       inkscape:collect="always"
       xlink:href="#WhiteTransparent"
       id="radialGradient5811"
       cx="181.22729"
       cy="214.55119"
       fx="181.22729"
       fy="214.55119"
       r="22.4664"
       gradientTransform="matrix(1.351523,0,0,1.717571,-63.70565,-153.9557)"
       gradientUnits="userSpaceOnUse" /><filter
       color-interpolation-filters="sRGB"
       inkscape:collect="always"
       id="filter5845"
       x="-0.067752078"
       y="-0.053323478"
       width="1.1355042"
       height="1.106647"><feGaussianBlur
         inkscape:collect="always"
         stdDeviation="1.2409356"
         id="feGaussianBlur5847" /></filter><linearGradient
       inkscape:collect="always"
       xlink:href="#WhiteTransparent"
       id="linearGradient5822"
       gradientUnits="userSpaceOnUse"
       gradientTransform="matrix(0.12993824,0,0,0.12989759,-70.841974,473.99507)"
       x1="73.712097"
       y1="180.47569"
       x2="82.754066"
       y2="187.6597" /><linearGradient
       inkscape:collect="always"
       id="linearGradient10981-3"><stop
         style="stop-color:#729fcf;stop-opacity:1;"
         offset="0"
         id="stop10983-2" /><stop
         style="stop-color:#729fcf;stop-opacity:0;"
         offset="1"
         id="stop10985-3" /></linearGradient><filter
       color-interpolation-filters="sRGB"
       inkscape:collect="always"
       id="filter10997-7"
       x="-0.05936747"
       y="-0.04028615"
       width="1.118735"
       height="1.0805722"><feGaussianBlur
         inkscape:collect="always"
         stdDeviation="2.7696726"
         id="feGaussianBlur10999-0" /></filter><linearGradient
       y2="144.5"
       x2="153.7005"
       y1="217.5"
       x1="180.8129"
       gradientTransform="translate(-130.1657,-83.35279)"
       gradientUnits="userSpaceOnUse"
       id="linearGradient1030"
       xlink:href="#linearGradient10981-3"
       inkscape:collect="always" /><linearGradient
       inkscape:collect="always"
       xlink:href="#WhiteTransparent"
       id="linearGradient27334"
       gradientUnits="userSpaceOnUse"
       x1="231.625"
       y1="195.1875"
       x2="231.75"
       y2="201.5"
       gradientTransform="matrix(0.13965665,0,0,0.13961296,-72.525277,472.65903)" /><linearGradient
       inkscape:collect="always"
       xlink:href="#WhiteTransparent"
       id="linearGradient27336"
       gradientUnits="userSpaceOnUse"
       x1="231.3765"
       y1="195.62131"
       x2="231.3765"
       y2="200.0714" /><linearGradient
       inkscape:collect="always"
       xlink:href="#WhiteTransparent"
       id="linearGradient27338"
       gradientUnits="userSpaceOnUse"
       x1="231.625"
       y1="195.1875"
       x2="231.75"
       y2="201.5"
       gradientTransform="matrix(0.06037984,0,0,0.13962189,-279.58914,401.56675)" /><linearGradient
       inkscape:collect="always"
       xlink:href="#WhiteTransparent"
       id="linearGradient27340"
       gradientUnits="userSpaceOnUse"
       x1="231.3765"
       y1="195.62131"
       x2="231.3765"
       y2="200.0714" /></defs><g
     inkscape:label="Portfolio"
     inkscape:groupmode="layer"
     id="layer1"
     inkscape:highlight-color="#ffffff"
     transform="translate(67.154313,-478.86434)"><path
       inkscape:connector-curvature="0"
       sodipodi:nodetypes="ccccccccccccccccccccccc"
       style="fill:#000000;fill-opacity:1;stroke-width:0.263637"
       d="m -54.994823,479.85282 -10.863534,11.12374 c -4.113378,4.11209 2.663148,3.76941 5.115353,5.32463 1.133816,0.73806 -3.638756,1.68701 -2.663148,2.66231 0.949241,0.9753 5.721814,1.87153 6.671054,2.82047 0.949241,0.97531 -1.924849,2.00333 -0.975608,2.97863 0.922873,0.97531 3.137768,0.0527 3.533285,2.26692 0.290046,1.6343 4.060642,0.81715 5.748181,-0.57991 1.054712,-0.89622 -1.819378,-0.89622 -0.870137,-1.87152 2.373102,-2.39872 4.482526,-1.08075 5.352664,-3.29495 0.47462,-1.18618 -3.586021,-2.02968 -2.504941,-2.79411 2.584044,-1.81881 12.076453,-2.74139 7.699398,-7.11708 l -11.259052,-11.51913 c -1.397493,-1.31797 -3.691492,-1.31797 -4.983515,0 z m 12.471971,21.43032 c 0,0.55355 4.297952,0.86987 4.060642,-0.1318 -0.342782,-1.68701 -3.586021,-1.55521 -4.060642,0.1318 z m -18.325623,2.92591 c 0.975609,0.84351 2.452206,-0.18451 2.926826,-1.37069 -0.949241,-1.2389 -4.456158,0.0791 -2.926826,1.37069 z m 17.798267,-1.76609 c -1.212919,1.1071 0.210943,2.26692 1.397494,1.5025 0.316413,-0.21088 -0.02637,-1.2389 -1.397494,-1.5025 z"
       id="use7631-1" /><path
       inkscape:connector-curvature="0"
       sodipodi:nodetypes="ccccccccccccccccccccccc"
       style="fill:none;stroke-width:0.263637"
       d="m -54.994823,479.85282 -10.863534,11.12374 c -4.113378,4.11209 2.663148,3.76941 5.115353,5.32463 1.133816,0.73806 -3.638756,1.68701 -2.663148,2.66231 0.949241,0.9753 5.721814,1.87153 6.671054,2.82047 0.949241,0.97531 -1.924849,2.00333 -0.975608,2.97863 0.922873,0.97531 3.137768,0.0527 3.533285,2.26692 0.290046,1.6343 4.060642,0.81715 5.748181,-0.57991 1.054712,-0.89622 -1.819378,-0.89622 -0.870137,-1.87152 2.373102,-2.39872 4.482526,-1.08075 5.352664,-3.29495 0.47462,-1.18618 -3.586021,-2.02968 -2.504941,-2.79411 2.584044,-1.81881 12.076453,-2.74139 7.699398,-7.11708 l -11.259052,-11.51913 c -1.397493,-1.31797 -3.691492,-1.31797 -4.983515,0 z m 12.471971,21.43032 c 0,0.55355 4.297952,0.86987 4.060642,-0.1318 -0.342782,-1.68701 -3.586021,-1.55521 -4.060642,0.1318 z m -18.325623,2.92591 c 0.975609,0.84351 2.452206,-0.18451 2.926826,-1.37069 -0.949241,-1.2389 -4.456158,0.0791 -2.926826,1.37069 z m 17.798267,-1.76609 c -1.212919,1.1071 0.210943,2.26692 1.397494,1.5025 0.316413,-0.21088 -0.02637,-1.2389 -1.397494,-1.5025 z"
       id="use7639" /><use
       inkscape:label="blue_cast"
       id="use7641"
       xlink:href="#outline1-6"
       class="low-specularity"
       style="opacity:0.669951;fill:url(#linearGradient9175);filter:url(#filter8490)"
       x="0"
       y="0"
       width="400"
       height="300"
       transform="matrix(0.26118474,0,0,0.26110303,-69.100238,476.71713)"
       clip-path="url(#clipPath9086-8)" /><path
       inkscape:connector-curvature="0"
       id="path7643"
       d="m -64.891919,491.5932 c -2.953707,2.92619 2.235235,2.10153 6.22673,3.67103 l 8.249088,-14.49789 c -1.250667,-1.27688 -2.847264,-1.17047 -3.991495,0 z"
       style="opacity:0.505263;fill:url(#shinySpecular-4-5);stroke:none;stroke-width:0.263637"
       class="specularity" /><path
       inkscape:connector-curvature="0"
       d="m -50.670503,480.64361 4.297952,4.37569 c 0.395517,0.39539 0.395517,1.21254 0.158207,1.44977 l -2.135792,-1.73973 -0.421885,2.55688 -1.766643,-0.94895 -2.87409,1.81881 -0.949241,-3.82213 -1.529333,3.3213 -3.823331,-0.0264 c -0.738299,0 -0.632828,-0.76442 0.131839,-1.52885 1.502964,-1.66065 4.429791,-4.48113 5.352664,-5.45643 0.949241,-0.9753 2.610412,-0.94894 3.559653,0 z"
       style="fill:url(#IcecapTip-7);stroke-width:0.263637"
       class="full-specularity"
       id="icecap-7" /><path
       inkscape:connector-curvature="0"
       style="opacity:0.216749;fill:url(#radialGradient9177);fill-opacity:1;fill-rule:evenodd;stroke:none;stroke-width:0.139635"
       d="m -56.569505,501.31459 c 0,0 0.466523,0.71212 0.41897,1.04709 -0.09332,0.6574 -1.509604,0.98545 -1.19581,1.57065 0.310024,0.57815 1.427487,0.25047 2.365435,0.85513 0.933954,0.60208 0.682851,1.82914 1.361652,2.13782 1.323833,0.60201 4.800698,-1.03837 4.626127,-1.00346 -0.174571,0.0349 -3.431378,0.71138 -4.164576,0.11802 -0.835984,-0.67652 -1.075663,-1.14904 -1.692275,-1.54906 -0.577829,-0.37486 -1.389542,-0.52779 -1.578469,-0.8347 -0.188928,-0.3069 0.378357,-0.7029 0.417573,-1.2944 0.02355,-0.35523 -0.558627,-1.04709 -0.558627,-1.04709 z"
       id="path8566"
       sodipodi:nodetypes="csszsszszsc" /><path
       inkscape:connector-curvature="0"
       sodipodi:nodetypes="csszscssc"
       transform="matrix(0.13965665,0,0,0.13961296,-72.350706,472.90335)"
       id="path8718"
       d="m 113,203.5 c 0,0 3.3405,5.1007 3,7.5 -0.6682,4.7087 -10.8094,7.0584 -8.5625,11.25 2.2199,4.1411 10.2214,1.794 16.9375,6.125 6.6875,4.3125 4.8895,13.1015 9.75,15.3125 9.4792,4.312 34.375,-7.4375 33.125,-7.1875 -41.3396,0.1574 -33.6249,-10.4946 -49.5625,-17.5 -2.303,-1.0123 -0.9683,-3.7633 -0.6875,-8 0.1686,-2.5444 -4,-7.5 -4,-7.5 z"
       style="opacity:0.275862;fill:url(#radialGradient8574);fill-opacity:1;fill-rule:evenodd;stroke:none;filter:url(#filter8732)" /><path
       inkscape:connector-curvature="0"
       style="opacity:0.453202;fill:url(#radialGradient8744);fill-opacity:1;fill-rule:evenodd;stroke:none;stroke-width:0.139635"
       d="m -46.758625,498.27801 c 5.181779,-1.90636 6.846472,-2.16828 8.55397,-3.87426 -1.977636,1.66889 -6.158649,2.5641 -9.566481,4.04877 z"
       id="path8736"
       sodipodi:nodetypes="cccc" /><path
       inkscape:connector-curvature="0"
       sodipodi:nodetypes="cccc"
       transform="matrix(0.13965665,0,0,0.13961296,-72.350706,472.65903)"
       id="path8746"
       d="m 183.25,181.75 c 61.1037,-21.6546 50.7736,-21.5306 61.25,-27.75 -19.4277,7.4367 -55.7345,8.2298 -68.5,29 z"
       style="opacity:0.512315;fill:url(#radialGradient8768);fill-opacity:1;fill-rule:evenodd;stroke:none;filter:url(#filter8764)" /><ellipse
       style="display:inline;overflow:visible;visibility:visible;opacity:0.285714;fill:url(#linearGradient27334);fill-opacity:1;fill-rule:nonzero;stroke:none;stroke-width:0.139635;marker:none;enable-background:accumulate"
       id="path8864"
       cx="-40.412975"
       cy="500.45074"
       rx="1.1085247"
       ry="0.34030658" /><ellipse
       transform="matrix(0.18804162,0,0,0.30070478,-83.650797,440.98434)"
       id="path8874"
       style="display:inline;overflow:visible;visibility:visible;opacity:0.620689;fill:url(#linearGradient27336);fill-opacity:1;fill-rule:nonzero;stroke:none;stroke-width:1;marker:none;filter:url(#filter8906);enable-background:accumulate"
       cx="229.9375"
       cy="199.0625"
       rx="7.9375"
       ry="2.4375" /><path
       inkscape:connector-curvature="0"
       style="fill:url(#radialGradient8922);fill-opacity:1;fill-rule:evenodd;stroke:none;filter:url(#filter8980)"
       d="m 214.125,203.75 c 3.7695,3.4842 24.7558,5.2722 28.1875,-1 -6.7366,4.7839 -21.7168,3.1026 -28.1875,1 z"
       id="path8914"
       transform="matrix(0.13965665,0,0,0.13961296,-72.350706,472.80463)"
       sodipodi:nodetypes="ccc" /><ellipse
       transform="matrix(0.89196421,-0.45210601,0.45233107,0.8918501,0,0)"
       id="path8984"
       style="display:inline;overflow:visible;visibility:visible;opacity:0.285714;fill:url(#linearGradient27338);fill-opacity:1;fill-rule:nonzero;stroke:none;stroke-width:0.0918169;marker:none;enable-background:accumulate"
       cx="-265.70554"
       cy="429.36023"
       rx="0.39297876"
       ry="0.43032613" /><ellipse
       style="display:inline;overflow:visible;visibility:visible;opacity:0.620689;fill:url(#linearGradient27340);fill-opacity:1;fill-rule:nonzero;stroke:none;stroke-width:1;marker:none;filter:url(#filter8906);enable-background:accumulate"
       id="path8986"
       transform="matrix(0.07251565,-0.03675568,0.13602685,0.26820082,-86.492086,458.29054)"
       cx="229.9375"
       cy="199.0625"
       rx="7.055552"
       ry="2.140048" /><path
       inkscape:connector-curvature="0"
       sodipodi:nodetypes="ccc"
       transform="matrix(0.05385666,-0.02729809,0.06315532,0.1245218,-67.609206,484.63702)"
       id="path8988"
       d="m 217.0575,201.9403 c 3.7695,3.4842 26.9713,8.9112 25.255,0.8097 -3.3174,5.3233 -18.7842,1.2929 -25.255,-0.8097 z"
       style="fill:url(#radialGradient8994);fill-opacity:1;fill-rule:evenodd;stroke:none;filter:url(#filter8980)" /><path
       inkscape:connector-curvature="0"
       style="fill:url(#radialGradient9004);fill-opacity:1;fill-rule:evenodd;stroke:none;stroke-width:0.139635"
       d="m -62.81914,498.87136 c 0,-0.0866 5.425131,1.65281 6.354378,2.58284 -0.76409,-0.74532 -4.630974,-2.45944 -5.219667,-2.47813 -0.588694,-0.0187 -1.064882,-0.0698 -1.134711,-0.10471 z"
       id="path8996"
       sodipodi:nodetypes="cczc" /><g
       id="g9018"
       transform="matrix(0.23177689,-0.05087286,0.06165691,0.18344391,-74.588613,486.23857)"><ellipse
         style="display:inline;overflow:visible;visibility:visible;opacity:0.285714;fill:url(#linearGradient8912);fill-opacity:1;fill-rule:nonzero;stroke:none;stroke-width:1;marker:none;enable-background:accumulate"
         id="path9006"
         transform="matrix(0.5296484,0,0,0.5296484,-84.4165,-4.727724)"
         cx="229.9375"
         cy="199.0625"
         rx="7.9375"
         ry="2.4375" /><ellipse
         transform="matrix(0.7131486,0,0,1.140781,-126.6101,-124.8917)"
         id="path9008"
         style="display:inline;overflow:visible;visibility:visible;opacity:0.620689;fill:url(#linearGradient8910);fill-opacity:1;fill-rule:nonzero;stroke:none;stroke-width:1;marker:none;filter:url(#filter8906);enable-background:accumulate"
         cx="229.9375"
         cy="199.0625"
         rx="7.9375"
         ry="2.4375" /></g><path
       inkscape:connector-curvature="0"
       style="opacity:0.615763;fill:url(#radialGradient9046);fill-opacity:1;fill-rule:evenodd;stroke:none;filter:url(#filter9068)"
       d="m 80.5,220.0625 c 0,0 2.10339,5.6508 7.875,5.9375 5.83887,0.2901 12.5032,-7.007 13.0625,-9.625 -1,2.25 -6.59033,9.0333 -13.8125,8.9375 -4.09986,-0.054 -7.125,-5.25 -7.125,-5.25 z"
       id="path9038"
       transform="matrix(0.13965665,0,0,0.13961296,-72.324521,472.75501)"
       sodipodi:nodetypes="czczc" /><path
       inkscape:connector-curvature="0"
       sodipodi:nodetypes="csssssscs"
       transform="matrix(0.12875575,0,0,0.12871547,-70.791879,474.52707)"
       id="path5897"
       d="m 95.5,172 c -5.09061,1.5019 -21.59202,7.7371 -19.25,12.5 2.2436,4.5627 40.6114,6.4013 46.5,20 2.5679,5.9301 -5.8924,10.4033 -3.75,16.5 1.6497,4.6948 14.412,16.4908 22.486,22.0678 6.333,4.3744 14.651,-3.5224 11.264,-10.0678 -5.3959,-10.4276 18.4427,-23.1991 29.25,-29 6.3052,-3.3844 -13,-20 -13,-20 0,0 -73.5,-12 -73.5,-12 z"
       style="opacity:0.325123;fill:url(#linearGradient5905);fill-opacity:1;fill-rule:evenodd;stroke:none;filter:url(#filter5983-5)" /><path
       inkscape:connector-curvature="0"
       sodipodi:nodetypes="cssssssssss"
       id="path5783"
       d="m -58.253311,497.25884 c 0.588511,0.43209 1.749965,0.17148 2.447491,0.48548 1.674229,0.75367 3.732347,1.59354 3.353608,0.10664 0,0 -0.426043,0.35375 -0.426043,0.35375 0,0 -0.0083,-0.67415 -0.0083,-0.67415 0,0 -0.989315,0.24153 -0.989315,0.24153 0,0 -0.766293,-0.61491 -1.117604,-0.81767 -0.07338,-0.0424 -0.450283,0.34077 -0.450283,0.34077 0,0 -0.06776,-0.40693 -0.06776,-0.40693 -0.489747,-0.0521 -0.974596,-0.0751 -1.401488,-0.0717 -1.023319,0.008 -1.713659,0.16811 -1.340294,0.44224 z"
       style="fill:url(#linearGradient5801);fill-opacity:1;fill-rule:evenodd;stroke:none;stroke-width:0.263637" /><path
       inkscape:connector-curvature="0"
       sodipodi:nodetypes="csssssc"
       transform="matrix(0.12875575,0,0,0.12871547,-70.791879,474.52707)"
       id="path5803"
       d="m 182.75,187.25 c -1.7598,6.4783 21.6278,15.2799 19.875,19.75 -3.859,9.8416 -24.976,3.1375 -41.125,23.75 -2.3132,2.9525 3.25,13.5 2.5,12.25 -0.75,-1.25 -6.4649,-9.9629 -5,-14.25 4.5942,-13.4452 49.0128,-18.4575 40.875,-24.875 -4.6799,-3.6906 -21.5055,-13.8872 -17.125,-16.625 z"
       style="opacity:0.477833;fill:url(#radialGradient5811);fill-opacity:1;fill-rule:evenodd;stroke:none;filter:url(#filter5845)" /><ellipse
       id="path6041"
       style="display:inline;overflow:visible;visibility:visible;opacity:0.586207;fill:#ffffff;fill-opacity:1;fill-rule:nonzero;stroke:none;stroke-width:0.128736;marker:none;enable-background:accumulate"
       cx="-40.815929"
       cy="500.34256"
       rx="0.32993662"
       ry="0.13676019" /><ellipse
       style="display:inline;overflow:visible;visibility:visible;opacity:0.586207;fill:#ffffff;fill-opacity:1;fill-rule:nonzero;stroke:none;stroke-width:0.102516;marker:none;enable-background:accumulate"
       id="path6043"
       cx="-42.900166"
       cy="502.86862"
       rx="0.2092281"
       ry="0.13676019" /><ellipse
       style="display:inline;overflow:visible;visibility:visible;opacity:0.586207;fill:#ffffff;fill-opacity:1;fill-rule:nonzero;stroke:none;stroke-width:0.13636;marker:none;enable-background:accumulate"
       id="path6045"
       cx="-59.751072"
       cy="502.74796"
       rx="0.37017277"
       ry="0.13676019" /><path
       inkscape:connector-curvature="0"
       sodipodi:nodetypes="ccc"
       id="path5049"
       d="m -59.590129,496.73049 c -1.886087,1.16618 -4.818461,1.5906 -1.609446,2.36515 -0.382257,-0.85091 0.827574,-0.75705 1.609446,-2.36515 z"
       style="display:inline;overflow:visible;visibility:visible;opacity:0.251232;fill:url(#linearGradient5822);fill-opacity:1;fill-rule:nonzero;stroke:none;stroke-width:0.539899;marker:none;enable-background:accumulate" /><path
       inkscape:connector-curvature="0"
       style="color:#000000;display:inline;overflow:visible;visibility:visible;opacity:0.363158;fill:url(#linearGradient1030);fill-opacity:1;fill-rule:nonzero;stroke:none;stroke-width:2;marker:none;filter:url(#filter10997-7);enable-background:accumulate"
       d="m 8.83428,171.6472 c 0,0 22.59178,-2.1279 27.81802,-8.6464 3.05755,-3.8136 -12.15146,-8.2638 -8.86827,-12 12.35008,-14.0541 22.73076,-13.4673 37.05025,-19.3536 14.31949,-5.8862 9.03544,-8.769 4.40381,-11.3535 -7.9325,-4.4264 -25.58722,-9.1424 -19.74696,-19.6465 5.87688,-10.56993 57.34317,-25.24999 57.34317,-25.24999 15.5962,-5.32843 13.6391,-14.96447 6,-23 L 66.83428,6.647214 c 0,0 2.28296,43.388646 -7,61.999996 -11.4715,22.99914 -72.54408,48.66179 -47,51.49999 9,1 13.32065,4.0705 17,11 7.57631,14.2688 -21,40.5 -21,40.5 z"
       id="path10207"
       sodipodi:nodetypes="csszsscccsssc"
       transform="matrix(0.12875575,0,0,0.12871547,-54.032292,485.25587)" /></g><style
     type="text/css"
     id="style26">
	.specularity {opacity:0.5;}
	.low-specularity {opacity:0.25;}
	.full-specularity {opacity:1;}
	.black {fill:#000000;}
	.white {fill:#ffffff;}
	.outline-big {stroke-width:16;stroke:none;opacity:0.1;fill:none;}
	.outline-small {stroke-width:8;stroke:none;opacity:0.2;fill:none;}
	.stroke-highlight {fill:none;stroke:none;opacity:0.2;}
       	.base-shadow 	{fill:black;opacity:75;}
	</style><style
     type="text/css"
     id="style26-7">
	.specularity {opacity:0.5;}
	.low-specularity {opacity:0.25;}
	.full-specularity {opacity:1;}
	.black {fill:#000000;}
	.white {fill:#ffffff;}
	.outline-big {stroke-width:16;stroke:none;opacity:0.1;fill:none;}
	.outline-small {stroke-width:8;stroke:none;opacity:0.2;fill:none;}
	.stroke-highlight {fill:none;stroke:none;opacity:0.2;}
       	.base-shadow 	{fill:black;opacity:75;}
	</style><style
     id="style25348">.st0{fill:#061d2f}.st1{clip-path:url(#SVGID_4_)}</style><style
     type="text/css"
     id="style26-2">
	.specularity {opacity:0.5;}
	.low-specularity {opacity:0.25;}
	.full-specularity {opacity:1;}
	.black {fill:#000000;}
	.white {fill:#ffffff;}
	.outline-big {stroke-width:16;stroke:none;opacity:0.1;fill:none;}
	.outline-small {stroke-width:8;stroke:none;opacity:0.2;fill:none;}
	.stroke-highlight {fill:none;stroke:none;opacity:0.2;}
       	.base-shadow 	{fill:black;opacity:75;}
	</style></svg>
