<?xml version="1.0" encoding="UTF-8" standalone="no"?>
<!-- Created with Inkscape (http://www.inkscape.org/) -->

<svg
   width="946.48138"
   height="946.479"
   viewBox="0 0 250.42319 250.42257"
   version="1.1"
   id="svg5"
   xml:space="preserve"
   inkscape:version="1.2.1 (9c6d41e410, 2022-07-14)"
   sodipodi:docname="portfolio.svg"
   inkscape:export-filename="logo_frame.svg"
   inkscape:export-xdpi="96"
   inkscape:export-ydpi="96"
   xmlns:inkscape="http://www.inkscape.org/namespaces/inkscape"
   xmlns:sodipodi="http://sodipodi.sourceforge.net/DTD/sodipodi-0.dtd"
   xmlns:xlink="http://www.w3.org/1999/xlink"
   xmlns="http://www.w3.org/2000/svg"
   xmlns:svg="http://www.w3.org/2000/svg"
   xmlns:serif="http://www.serif.com/"><sodipodi:namedview
     id="namedview7"
     pagecolor="#505050"
     bordercolor="#ffffff"
     borderopacity="1"
     inkscape:showpageshadow="0"
     inkscape:pageopacity="0"
     inkscape:pagecheckerboard="1"
     inkscape:deskcolor="#505050"
     inkscape:document-units="px"
     showgrid="false"
     inkscape:zoom="0.1767767"
     inkscape:cx="-463.86205"
     inkscape:cy="828.72915"
     inkscape:window-width="1366"
     inkscape:window-height="704"
     inkscape:window-x="1280"
     inkscape:window-y="40"
     inkscape:window-maximized="1"
     inkscape:current-layer="layer1"
     showguides="true" /><defs
     id="defs2"><linearGradient
       inkscape:collect="always"
       id="linearGradient2118"><stop
         style="stop-color:#292929;stop-opacity:0.25;"
         offset="0"
         id="stop4339" /><stop
         style="stop-color:#292929;stop-opacity:0;"
         offset="0.2"
         id="stop2116" /><stop
         style="stop-color:#292929;stop-opacity:0.03137255;"
         offset="0.22645347"
         id="stop2029" /><stop
         style="stop-color:#292929;stop-opacity:1;"
         offset="1"
         id="stop2114" /></linearGradient><inkscape:path-effect
       effect="fillet_chamfer"
       id="path-effect1830"
       is_visible="true"
       lpeversion="1"
       nodesatellites_param="F,0,0,1,0,0,0,1 @ F,0,0,1,0,0,0,1 @ F,0,0,1,0,0,0,1 @ F,0,0,1,0,0,0,1 @ F,0,0,1,0,0,0,1 @ F,0,0,1,0,0,0,1 @ F,0,0,1,0,0,0,1 @ F,0,0,1,0,0,0,1 @ F,0,0,1,0,0,0,1 @ F,0,0,1,0,0,0,1 @ F,0,0,1,0,0,0,1"
       unit="px"
       method="auto"
       mode="F"
       radius="1"
       chamfer_steps="1"
       flexible="false"
       use_knot_distance="true"
       apply_no_radius="true"
       apply_with_radius="true"
       only_selected="true"
       hide_knots="false" /><inkscape:path-effect
       effect="fillet_chamfer"
       id="path-effect1828"
       is_visible="true"
       lpeversion="1"
       nodesatellites_param="F,0,0,1,0,0,0,1 @ F,0,0,1,0,0,0,1 @ F,0,1,1,0,1,0,1 @ F,0,0,1,0,0,0,1 @ F,0,0,1,0,0,0,1 @ F,0,0,1,0,0,0,1 @ F,0,0,1,0,0,0,1 @ F,0,1,1,0,1,0,1 @ F,0,0,1,0,0,0,1 @ F,0,0,1,0,0,0,1 @ F,0,0,1,0,0,0,1"
       unit="px"
       method="auto"
       mode="F"
       radius="1"
       chamfer_steps="1"
       flexible="false"
       use_knot_distance="true"
       apply_no_radius="true"
       apply_with_radius="true"
       only_selected="true"
       hide_knots="false" /><linearGradient
       id="linearGradient3279"
       inkscape:swatch="solid"><stop
         style="stop-color:#e8adad;stop-opacity:1;"
         offset="0"
         id="stop3277" /></linearGradient><filter
       inkscape:collect="always"
       style="color-interpolation-filters:sRGB"
       id="filter3345"
       x="-0.1587"
       y="-0.63480002"
       width="1.3174"
       height="2.2696002"><feGaussianBlur
         inkscape:collect="always"
         stdDeviation="63.480003"
         id="feGaussianBlur3343" /></filter><clipPath
       clipPathUnits="userSpaceOnUse"
       id="clipPath9260"><rect
         style="fill:#0f0f0f;fill-opacity:1;stroke-width:10.9443;stroke-linejoin:round"
         id="rect9262"
         width="1280"
         height="439.99997"
         x="1344"
         y="-1997.146"
         transform="scale(1,-1)" /></clipPath><clipPath
       clipPathUnits="userSpaceOnUse"
       id="clipPath6876"><g
         inkscape:label="Clip"
         id="use6878"
         transform="matrix(3.7795278,0,0,3.7795276,1344,1197.1461)"><path
           id="path725"
           style="fill:#0f0f0f;fill-opacity:1;stroke-width:2.89568;stroke-linejoin:round"
           d="m 160.40003,65.920524 c -4.95054,-9.5e-5 -9.52505,2.640958 -12.0003,6.928259 L 135.46667,95.249999 203.2,95.248999 190.26694,72.848816 c -2.47528,-4.287266 -7.04978,-6.928306 -12.0003,-6.928259 h -8.93331 z M 135.46667,95.249999 H 0 V 211.66667 H 338.66666 V 95.249999 Z"
           sodipodi:nodetypes="cccccccccccccc" /></g></clipPath><linearGradient
       inkscape:collect="always"
       xlink:href="#linearGradient2118"
       id="linearGradient2120"
       x1="169.33333"
       y1="103.8098"
       x2="169.33333"
       y2="65.92057"
       gradientUnits="userSpaceOnUse"
       gradientTransform="translate(-5.5562501e-6)" /><filter
       inkscape:collect="always"
       style="color-interpolation-filters:sRGB"
       id="filter18386"
       x="-0.76800001"
       y="-0.76800001"
       width="2.536"
       height="2.536"><feGaussianBlur
         inkscape:collect="always"
         stdDeviation="21.674666"
         id="feGaussianBlur18388" /></filter></defs><g
     inkscape:label="Portfolio"
     inkscape:groupmode="layer"
     id="layer1"
     inkscape:highlight-color="#ffffff"
     transform="translate(-338.66666,-202.54409)"><g
       id="g20146"
       inkscape:label="AboutSection"
       style="display:inline"><circle
         style="display:inline;mix-blend-mode:normal;fill:#272520;fill-opacity:1;stroke:none;stroke-width:0.79375;stroke-linejoin:round;stroke-dasharray:none;stroke-opacity:1;filter:url(#filter18386)"
         id="path18384"
         cx="169.33333"
         cy="95.779167"
         r="33.866665"
         inkscape:label="Light" /><path
         id="path718"
         style="display:inline;fill:#0f0f0f;fill-opacity:1;stroke-width:2.8956;stroke-linejoin:round;stroke-dasharray:none"
         d="m 160.40002,65.920529 c -4.95053,-9e-5 -9.52505,2.64096 -12.0003,6.92826 l -12.93306,22.40121 H 4.3318934e-6 V 211.66667 H 338.66666 V 95.249999 H 203.2 l -12.93307,-22.40121 c -2.47527,-4.28727 -7.04978,-6.92831 -12.0003,-6.92826 h -8.9333 z"
         inkscape:original-d="m 160.40002,65.920529 c -4.95053,-9e-5 -9.52505,2.64096 -12.0003,6.92826 l -12.93306,22.40121 H 4.3318934e-6 V 211.66667 H 338.66666 V 95.249999 H 203.2 l -12.93307,-22.40121 c -2.47527,-4.28727 -7.04978,-6.92831 -12.0003,-6.92826 h -8.9333 z"
         inkscape:path-effect="#path-effect1830"
         inkscape:label="Frame"
         inkscape:export-filename="frame.svg"
         inkscape:export-xdpi="96"
         inkscape:export-ydpi="96" /><ellipse
         style="opacity:1;mix-blend-mode:normal;fill:#1b1918;fill-opacity:1;stroke:none;stroke-width:6.53;stroke-linecap:round;stroke-dasharray:none;stroke-opacity:1;filter:url(#filter3345)"
         id="ellipse9256"
         cx="1984"
         cy="1469.498"
         transform="matrix(0.26458332,0,0,-0.26458333,-355.59997,623.66153)"
         rx="480.00003"
         ry="120"
         clip-path="url(#clipPath9260)" /><ellipse
         style="display:inline;opacity:1;mix-blend-mode:normal;fill:#1b1918;fill-opacity:1;stroke:none;stroke-width:6.53;stroke-linecap:round;stroke-dasharray:none;stroke-opacity:1;filter:url(#filter3345)"
         id="circle2577"
         cx="1984"
         cy="1469.498"
         transform="matrix(0.26458332,0,0,0.26458333,-355.59997,-316.74489)"
         rx="480.00003"
         ry="120"
         clip-path="url(#clipPath6876)" /><g
         id="g20168"
         inkscape:label="AboutMe"><rect
           style="fill:none;fill-opacity:1;stroke-width:1.71223;stroke-linecap:round"
           id="rect14726-8"
           width="169.33333"
           height="116.41666"
           x="84.666672"
           y="95.250015"
           inkscape:label="Frame" /><text
           xml:space="preserve"
           style="font-style:normal;font-variant:normal;font-weight:normal;font-stretch:normal;font-size:6.35px;font-family:sans-serif;-inkscape-font-specification:sans-serif;text-align:justify;white-space:pre;shape-inside:url(#rect14726-8);display:inline;fill:#ffffff;fill-opacity:1;stroke-width:1.72773;stroke-linecap:round"
           x="1807.4744"
           y="2079.0034"
           id="text15106-0"
           transform="translate(-0.16160061,38.206636)"
           inkscape:label="Caption"><tspan
             x="84.666016"
             y="101.02771"
             id="tspan15894"><tspan
               dx="0 0 0 0 0 0 0.57039404 0 0 0 0 0 0.57039213 0 0 0 0 0 0.57039595 0 0 0 0.57039595"
               id="tspan15888">Lorem ipsum dolor sit amet, </tspan><tspan
               dx="0.57039595"
               id="tspan15890">consectetur </tspan><tspan
               dx="0.57039595 0 0 0 0 0 0 0 0 0 0 0.57038832"
               id="tspan15892">adipiscing elit, </tspan></tspan><tspan
             x="84.666016"
             y="108.96521"
             id="tspan15904"><tspan
               dx="0 0 0 0 1.1928325"
               id="tspan15896">sed do </tspan><tspan
               dx="1.1928325 0 0 0 0 0 0 0 1.1928325"
               id="tspan15898">eiusmod tempor </tspan><tspan
               dx="1.1928344 0 0 0 0 0 0 0 0 0 0 1.1928325"
               id="tspan15900">incididunt ut </tspan><tspan
               dx="1.1928325 0 0 0 0 0 0 1.1928325 0 0 1.1928248"
               id="tspan15902">labore et dolore </tspan></tspan><tspan
             x="84.666016"
             y="116.90271"
             id="tspan15912">magna <tspan
   dx="0.88881826 0 0 0 0 0 0 0 0.88881636"
   id="tspan15906">aliqua. Ut </tspan><tspan
   dx="0.88882017 0 0 0 0 0.88881636 0 0 0.88881636 0 0 0 0 0 0.88882017 0 0 0 0 0 0 0 0.88881636"
   id="tspan15908">enim ad minim veniam, quis </tspan><tspan
   dx="0.88881636"
   id="tspan15910">nostrud </tspan></tspan><tspan
             x="84.666016"
             y="124.84021"
             id="tspan15920"><tspan
               dx="0 0 0 0 0 0 0 0 0 0 0 0 0 4.0438418 0 0 0 0 0 0 0 4.043838"
               id="tspan15914">exercitation ullamco laboris </tspan><tspan
               dx="4.0438457"
               id="tspan15916">nisi </tspan><tspan
               dx="4.043838 0 0 4.043838 0 0 0 0 0 0 0 4.0438457 0 0 4.0438457"
               id="tspan15918">ut aliquip ex ea </tspan></tspan><tspan
             x="84.666016"
             y="132.77771"
             id="tspan15922">commodo consequat. </tspan></text></g><path
         id="path729"
         style="display:inline;fill:none;fill-opacity:1;stroke:url(#linearGradient2120);stroke-width:0.529167;stroke-linecap:butt;stroke-linejoin:round;stroke-dasharray:none;stroke-opacity:1"
         d="m 160.40003,65.920529 c -4.95053,-9e-5 -9.52505,2.64096 -12.0003,6.92826 l -12.43307,21.53518 a 1.7320317,1.7320317 149.99973 0 1 -1.49999,0.86603 H -5.5562501e-6 V 211.66667 H 338.66667 V 95.249999 H 204.20001 a 1.7320324,1.7320324 30.000263 0 1 -1.49999,-0.86603 l -12.43308,-21.53518 c -2.47527,-4.28727 -7.04978,-6.92831 -12.0003,-6.92826 h -8.9333 z"
         inkscape:path-effect="#path-effect1828"
         inkscape:original-d="m 160.40003,65.920529 c -4.95053,-9e-5 -9.52505,2.64096 -12.0003,6.92826 l -12.93306,22.40121 H -5.5562501e-6 V 211.66667 H 338.66667 V 95.249999 H 203.20001 l -12.93307,-22.40121 c -2.47527,-4.28727 -7.04978,-6.92831 -12.0003,-6.92826 h -8.9333 z"
         inkscape:label="Outline" /><g
         id="g12675"
         transform="matrix(0.17414743,0,0,0.17597238,-231.90233,-211.11668)"
         style="stroke-width:1.07958"
         clip-path="none"
         inkscape:export-filename="logo.svg"
         inkscape:export-xdpi="96"
         inkscape:export-ydpi="96"
         inkscape:label="Logo"
         inkscape:highlight-color="#f5c82e"><path
           id="path12667"
           style="fill:#ebd04d;fill-opacity:1;stroke:none;stroke-width:0;stroke-linejoin:round;stroke-dasharray:none;stroke-opacity:1"
           d="m 2189.3781,1799.8002 c 14.6479,14.6478 29.2957,29.2957 43.9436,43.9436 7.0244,7.0244 20.772,12.7189 30.7061,12.7189 h 79.9442 c 9.9341,0 23.6817,-5.6945 30.7061,-12.7189 14.6479,-14.6479 29.2957,-29.2958 43.9436,-43.9436 7.0244,-7.0244 9.0357,-19.8804 4.4922,-28.7145 -21.1811,-41.1842 -42.3623,-82.3683 -63.5434,-123.5525 -4.5434,-8.8342 -16.2798,-15.9957 -26.2138,-15.9957 h -58.7136 c -9.934,0 -21.6704,7.1615 -26.2138,15.9957 -21.1812,41.1842 -42.3623,82.3683 -63.5435,123.5525 -4.5434,8.8341 -2.5321,21.6901 4.4923,28.7145 z" /><path
           id="path12669"
           style="fill:#1a1a1a;fill-opacity:1;stroke:none;stroke-width:0;stroke-linejoin:round;stroke-dasharray:none;stroke-opacity:1"
           d="m 2194.1861,1795.37 c 15.0068,15.0068 30.0136,30.0136 45.0204,45.0204 5.2683,5.2683 15.579,9.5392 23.0295,9.5392 h 83.5277 c 7.4506,0 17.7613,-4.2709 23.0296,-9.5392 15.0068,-15.0068 30.0136,-30.0136 45.0204,-45.0204 5.2683,-5.2683 6.7767,-14.9102 3.369,-21.5358 -21.2187,-41.2556 -42.4374,-82.5113 -63.6562,-123.7669 -3.4077,-6.6256 -12.21,-11.9967 -19.6605,-11.9967 h -59.7322 c -7.4506,0 -16.2529,5.3711 -19.6606,11.9967 -21.2187,41.2556 -42.4374,82.5113 -63.6561,123.7669 -3.4077,6.6256 -1.8993,16.2675 3.369,21.5358 z" /><path
           id="path12671"
           style="fill:#fbfbfb;fill-opacity:1;stroke:none;stroke-width:0;stroke-linejoin:round;stroke-dasharray:none;stroke-opacity:1"
           d="m 2367.4891,1832.4564 39.3968,-39.3968 c 4.683,-4.6829 6.0236,-13.2534 2.9944,-19.1428 -19.7105,-38.3216 -39.4212,-76.643 -59.1318,-114.9646 -3.0292,-5.8893 -7.738,-5.7905 -10.5175,0.2207 l -27.5993,59.69 a 25.93441,25.93441 0 0 0 0,21.7686 l 41.3456,89.4199 a 8.3676498,8.3676498 0 0 0 13.5118,2.405 z" /><path
           id="path12673"
           style="fill:#fbfbfb;fill-opacity:1;stroke:none;stroke-width:0;stroke-linejoin:round;stroke-dasharray:none;stroke-opacity:1"
           d="m 2327.7791,1644.6037 h -51.1567 c -6.6227,0 -14.4471,4.7743 -17.4763,10.6636 -20.3422,39.5498 -40.6844,79.0997 -61.0267,118.6495 -3.0291,5.8894 -1.6885,14.4599 2.9945,19.1428 l 39.3968,39.3968 a 8.3677105,8.3677105 0 0 0 13.5119,-2.405 l 80.7153,-174.5634 a 7.6666464,7.6666464 0 0 0 -6.9588,-10.8843 z" /></g></g><g
       id="g11905"
       transform="matrix(0.26458333,0,0,0.26458333,338.59774,202.47441)">
	<path
   fill="#000080"
   d="m 835.5,473.6 c 0,-199.8 -162.2,-362 -362,-362 -199.8,0 -362,162.2 -362,362 0,199.8 162.2,362 362,362 199.8,0 362,-162.2 362,-362"
   id="path11889" />
	<path
   fill="#ffffff"
   d="m 729.5,323.6 c 0,-58.5 -47.5,-106 -106,-106 -58.5,0 -106,47.5 -106,106 0,58.5 47.5,106 106,106 58.5,0 106,-47.5 106,-106"
   id="path11891" />
	<path
   fill="#000080"
   d="m 941.5,111.5 c 0,-58.5 -47.5,-106 -106,-106 -58.5,0 -106,47.5 -106,106 0,58.5 47.5,106 106,106 58.5,0 106,-47.4 106,-106"
   id="path11893" />
	<g
   id="g11901">
		
		
		
	</g>
	<path
   fill="none"
   stroke="#808080"
   stroke-width="10.8612"
   stroke-miterlimit="10"
   stroke-dasharray="40.8475"
   d="m 890.6,261 c 33.5,65.8 51,138.6 51,212.5 0,258.4 -209.7,468.1 -468.1,468.1 C 215.1,941.6 5.4,731.9 5.4,473.5 5.4,215.1 215.1,5.4 473.5,5.4 c 83.1,0 164.6,22.1 236.2,63.9"
   id="path11903" />
</g><g
       style="clip-rule:evenodd;fill-rule:evenodd;stroke-linejoin:round;stroke-miterlimit:1.41421"
       id="g12001"
       transform="matrix(0.26458333,0,0,0.26458333,523.03337,432.33575)"
       inkscape:export-filename="../../.local/share/containers/storage/volumes/soyshit/_data/abdera7mane.github.io/public/assets/icons/ferris.svg"
       inkscape:export-xdpi="3.4439654"
       inkscape:export-ydpi="3.4439654"><g
         id="Layer-1"
         serif:id="Layer 1">
        <g
   transform="translate(597.344,637.02)"
   id="g11923">
            <path
   d="m 0,-279.559 c -121.238,0 -231.39,14.576 -312.939,38.329 V -38.329 C -231.39,-14.575 -121.238,0 0,0 138.76,0 262.987,-19.092 346.431,-49.186 V -230.37 C 262.987,-260.465 138.76,-279.559 0,-279.559"
   style="fill:#a52b00;fill-rule:nonzero"
   id="path11921" />
        </g>
        <g
   transform="translate(1068.75,575.642)"
   id="g11927">
            <path
   d="m 0,-53.32 -14.211,-29.441 c 0.073,-1.118 0.131,-2.237 0.131,-3.36 0,-33.375 -34.706,-64.135 -93.097,-88.762 V 2.643 c 27.245,-11.492 49.348,-24.317 65.156,-38.125 -4.652,18.707 -20.564,56.553 -33.25,83.168 -20.85,38.066 -28.4,71.203 -27.432,72.844 0.617,1.033 7.73,-9.94 18.219,-27.721 C -60.074,58.028 -13.82,-8.373 -4.575,-25.287 5.897,-44.461 0,-53.32 0,-53.32"
   style="fill:#a52b00;fill-rule:nonzero"
   id="path11925" />
        </g>
        <g
   transform="translate(149.064,591.421)"
   id="g11931">
            <path
   d="m 0,-99.954 c 0,6.428 1.293,12.76 3.788,18.969 l -8.511,15.15 c 0,0 -6.818,8.846 5.188,27.508 10.59,16.455 63.635,80.867 91.632,114.598 12.026,17.293 20.179,27.945 20.893,26.916 1.124,-1.633 -7.476,-34.1 -31.359,-71.141 -11.144,-19.895 -24.454,-46.252 -32.442,-65.721 22.303,14.116 51.483,26.92 86.152,37.94 V -204.17 C 51.797,-177.622 0,-140.737 0,-99.954"
   style="fill:#a52b00;fill-rule:nonzero"
   id="path11929" />
        </g>
        <g
   transform="translate(1151.27,281.813)"
   id="g11935">
            <path
   d="m 0,240.343 -93.415,-68.811 c -0.88,-3.064 -1.756,-6.127 -2.662,-9.162 l 30.683,-44.451 c 3.13,-4.522 3.765,-10.398 1.731,-15.555 -2.037,-5.13 -6.491,-8.81 -11.763,-9.71 l -51.884,-8.805 c -2.008,-4.102 -4.116,-8.142 -6.23,-12.15 l 21.797,-49.903 c 2.243,-5.087 1.769,-10.995 -1.203,-15.608 -2.961,-4.636 -7.99,-7.344 -13.349,-7.133 l -52.656,1.913 c -2.727,-3.55 -5.496,-7.068 -8.321,-10.521 l 12.1,-53.49 c 1.225,-5.433 -0.322,-11.118 -4.103,-15.064 -3.762,-3.932 -9.229,-5.559 -14.426,-4.283 l -51.289,12.608 c -3.321,-2.935 -6.698,-5.833 -10.114,-8.673 l 1.848,-54.914 c 0.198,-5.559 -2.393,-10.842 -6.844,-13.925 -4.446,-3.104 -10.093,-3.573 -14.956,-1.266 l -47.847,22.747 c -3.854,-2.21 -7.728,-4.4 -11.644,-6.517 l -8.455,-54.115 c -0.857,-5.483 -4.385,-10.139 -9.326,-12.266 -4.923,-2.137 -10.568,-1.447 -14.891,1.808 l -42.659,32.007 c -4.2,-1.395 -8.419,-2.732 -12.692,-4.011 l -18.386,-51.316 c -1.87,-5.229 -6.181,-9.071 -11.438,-10.151 -5.239,-1.072 -10.63,0.742 -14.263,4.802 l -35.906,40.171 c -4.343,-0.5 -8.686,-0.956 -13.043,-1.331 l -27.724,-46.713 c -2.81,-4.732 -7.77,-7.612 -13.116,-7.612 -5.334,0 -10.304,2.88 -13.09,7.612 l -27.733,46.713 c -4.358,0.375 -8.722,0.831 -13.056,1.331 l -35.91,-40.171 c -3.636,-4.06 -9.047,-5.874 -14.268,-4.802 -5.255,1.092 -9.573,4.922 -11.433,10.151 l -18.402,51.316 c -4.26,1.279 -8.481,2.627 -12.691,4.011 l -42.644,-32.007 c -4.336,-3.266 -9.98,-3.955 -14.916,-1.808 -4.919,2.127 -8.461,6.783 -9.313,12.266 l -8.461,54.115 c -3.914,2.117 -7.789,4.294 -11.653,6.517 l -47.842,-22.747 c -4.858,-2.316 -10.529,-1.838 -14.954,1.266 -4.445,3.083 -7.042,8.366 -6.84,13.925 l 1.835,54.914 c -3.405,2.84 -6.774,5.738 -10.112,8.673 l -51.279,-12.608 c -5.21,-1.265 -10.67,0.351 -14.441,4.283 -3.795,3.946 -5.331,9.631 -4.113,15.064 l 12.079,53.49 c -2.802,3.467 -5.575,6.971 -8.293,10.521 l -52.655,-1.913 c -5.314,-0.157 -10.386,2.497 -13.356,7.133 -2.973,4.613 -3.423,10.521 -1.213,15.608 l 21.816,49.903 c -2.119,4.008 -4.224,8.048 -6.249,12.15 l -51.887,8.805 c -5.27,0.888 -9.71,4.566 -11.76,9.71 -2.04,5.157 -1.37,11.033 1.73,15.555 l 30.7,44.451 c -0.24,0.784 -0.46,1.577 -0.7,2.364 l -86.77,92.17 c 0,0 -13.29,10.423 6.07,34.916 17.07,21.605 104.724,107.252 151.018,152.123 19.554,22.779 32.948,36.886 34.349,35.666 2.208,-1.94 -9.387,-43.385 -47.902,-92.012 -29.685,-43.629 -68.215,-110.733 -59.175,-118.467 0,0 10.27,-13.045 30.893,-22.435 0.753,0.603 -0.781,-0.598 0,0 0,0 435.152,200.732 838.797,3.396 46.108,-8.273 74.023,16.43 74.023,16.43 9.628,5.58 -15.301,74.578 -35.798,120.254 -27.881,51.863 -31.97,92.332 -29.604,93.736 1.491,0.889 11.634,-14.545 26.104,-39.109 C -79.843,391.654 -12.354,296.816 0,273.782 14.006,247.663 0,240.343 0,240.343"
   style="fill:#f74c00;fill-rule:nonzero"
   id="path11933" />
        </g>
        <g
   transform="translate(450.328,483.629)"
   id="g11939">
            <path
   d="m 0,167.33 c -1.664,-1.42 -2.536,-2.262 -2.536,-2.262 L 140.006,153.391 C 23.733,0 -69.418,122.193 -79.333,135.855 v 31.475 z"
   style="fill-rule:nonzero"
   id="path11937" />
        </g>
        <g
   transform="translate(747.12,477.333)"
   id="g11943">
            <path
   d="m 0,171.974 c 1.663,-1.42 2.536,-2.264 2.536,-2.264 L -134.448,159.687 C -18.12,0 69.421,126.835 79.335,140.497 v 31.477 z"
   style="fill-rule:nonzero"
   id="path11941" />
        </g>
        <g
   transform="translate(966.094,811.034)"
   id="g11947">
            <path
   d="m 0,-314.014 c 0,0 -15.576,62.041 -112.453,127.238 l -27.166,6.367 c 0,0 -87.881,-160.259 -212.383,20.334 0,0 38.802,-22.591 142.822,4.92 0,0 -47.85,73.239 -144.242,70.989 0,0 92.373,110.82 232.94,-49.252 0,0 148.595,-57.463 160.646,-180.596 z"
   style="fill:#f74c00;fill-rule:nonzero"
   id="path11945" />
        </g>
        <g
   transform="translate(677.392,509.61)"
   id="g11951">
            <path
   d="m 0,-92.063 c 0,0 43.486,-47.615 86.974,0 0,0 34.17,63.492 0,95.234 0,0 -55.912,44.444 -86.974,0 0,0 -37.275,-34.921 0,-95.234"
   style="fill-rule:nonzero"
   id="path11949" />
        </g>
        <g
   transform="translate(727.738,435.209)"
   id="g11955">
            <path
   d="m 0,0.002 c 0,18.541 -10.93,33.572 -24.408,33.572 -13.477,0 -24.406,-15.031 -24.406,-33.572 0,-18.541 10.929,-33.574 24.406,-33.574 C -10.93,-33.572 0,-18.539 0,0.002"
   style="fill:#ffffff;fill-rule:nonzero"
   id="path11953" />
        </g>
        <g
   transform="translate(483.3,502.984)"
   id="g11959">
            <path
   d="m 0,-98.439 c 0,0 74.596,-33.028 94.956,40.691 0,0 21.327,85.926 -61.259,90.776 0,0 -105.31,-20.283 -33.697,-131.467"
   style="fill-rule:nonzero"
   id="path11957" />
        </g>
        <g
   transform="translate(520.766,436.428)"
   id="g11963">
            <path
   d="m 0,0 c 0,19.119 -11.27,34.627 -25.173,34.627 -13.898,0 -25.171,-15.508 -25.171,-34.627 0,-19.124 11.273,-34.627 25.171,-34.627 C -11.27,-34.627 0,-19.124 0,0"
   style="fill:#ffffff;fill-rule:nonzero"
   id="path11961" />
        </g>
        <g
   transform="translate(441.397,687.635)"
   id="g11967">
            <path
   d="M 0,-25.102 C 91.833,-36.676 144.904,-37.754 144.904,-37.754 22.037,-199.838 -77.661,-53.098 -77.661,-53.098 c -24.982,-8.932 -50.453,-43.613 -69.477,-75.59 l -76.237,-22.58 C -135.502,-2.127 -70.08,0.146 -70.08,0.146 66.134,174.736 130.663,34.441 130.663,34.441 54.195,25.759 0,-25.102 0,-25.102"
   style="fill:#f74c00;fill-rule:nonzero"
   id="path11965" />
        </g>
    </g></g></g><style
     type="text/css"
     id="style26">
	.specularity {opacity:0.5;}
	.low-specularity {opacity:0.25;}
	.full-specularity {opacity:1;}
	.black {fill:#000000;}
	.white {fill:#ffffff;}
	.outline-big {stroke-width:16;stroke:none;opacity:0.1;fill:none;}
	.outline-small {stroke-width:8;stroke:none;opacity:0.2;fill:none;}
	.stroke-highlight {fill:none;stroke:none;opacity:0.2;}
       	.base-shadow 	{fill:black;opacity:75;}
	</style></svg>
