<?xml version="1.0" encoding="UTF-8" standalone="no"?>
<!-- Created with Inkscape (http://www.inkscape.org/) -->

<svg
   width="39.999981"
   height="39.999924"
   viewBox="0 0 10.583328 10.583313"
   version="1.1"
   id="svg5"
   xml:space="preserve"
   inkscape:version="1.2.1 (9c6d41e410, 2022-07-14)"
   sodipodi:docname="lua_light.svg"
   inkscape:export-filename="logo_frame.svg"
   inkscape:export-xdpi="96"
   inkscape:export-ydpi="96"
   xmlns:inkscape="http://www.inkscape.org/namespaces/inkscape"
   xmlns:sodipodi="http://sodipodi.sourceforge.net/DTD/sodipodi-0.dtd"
   xmlns="http://www.w3.org/2000/svg"
   xmlns:svg="http://www.w3.org/2000/svg"><sodipodi:namedview
     id="namedview7"
     pagecolor="#505050"
     bordercolor="#ffffff"
     borderopacity="1"
     inkscape:showpageshadow="0"
     inkscape:pageopacity="0"
     inkscape:pagecheckerboard="1"
     inkscape:deskcolor="#505050"
     inkscape:document-units="px"
     showgrid="false"
     inkscape:zoom="1"
     inkscape:cx="53.999999"
     inkscape:cy="147.5"
     inkscape:window-width="1366"
     inkscape:window-height="704"
     inkscape:window-x="1280"
     inkscape:window-y="40"
     inkscape:window-maximized="1"
     inkscape:current-layer="layer1"
     showguides="true" /><defs
     id="defs2"><linearGradient
       id="linearGradient3279"
       inkscape:swatch="solid"><stop
         style="stop-color:#e8adad;stop-opacity:1;"
         offset="0"
         id="stop3277" /></linearGradient></defs><g
     inkscape:label="Portfolio"
     inkscape:groupmode="layer"
     id="layer1"
     inkscape:highlight-color="#ffffff"
     transform="translate(-218.5157,-424.09005)"><g
       id="g12110"
       transform="matrix(0.01118177,0,0,0.01118177,218.51279,424.08711)">
	<path
   id="path12094"
   d="m 473.5004,111.59977 c -199.7998,0 -362,162.2002 -362,362 0,199.7998 162.2002,362 362,362 199.7998,0 362,-162.2002 362,-362 0,-199.7998 -162.2002,-362 -362,-362 z m 150,106 c 58.49994,0 106,47.50006 106,106 0,58.49994 -47.50006,106 -106,106 -58.49994,0 -106,-47.50006 -106,-106 0,-58.49994 47.50006,-106 106,-106 z"
   style="fill:#aaaaaa;fill-opacity:1" />
	
	<path
   fill="#000080"
   d="m 941.5,111.5 c 0,-58.5 -47.5,-106 -106,-106 -58.5,0 -106,47.5 -106,106 0,58.5 47.5,106 106,106 58.5,0 106,-47.4 106,-106"
   id="path12098"
   style="fill:#b3b3b3;fill-opacity:1" />
	
	<path
   fill="none"
   stroke="#808080"
   stroke-width="10.8612"
   stroke-miterlimit="10"
   stroke-dasharray="40.8475"
   d="m 890.6,261 c 33.5,65.8 51,138.6 51,212.5 0,258.4 -209.7,468.1 -468.1,468.1 C 215.1,941.6 5.4,731.9 5.4,473.5 5.4,215.1 215.1,5.4 473.5,5.4 c 83.1,0 164.6,22.1 236.2,63.9"
   id="path12108"
   style="stroke:#b3b3b3;stroke-opacity:1" />
</g></g><style
     type="text/css"
     id="style26">
	.specularity {opacity:0.5;}
	.low-specularity {opacity:0.25;}
	.full-specularity {opacity:1;}
	.black {fill:#000000;}
	.white {fill:#ffffff;}
	.outline-big {stroke-width:16;stroke:none;opacity:0.1;fill:none;}
	.outline-small {stroke-width:8;stroke:none;opacity:0.2;fill:none;}
	.stroke-highlight {fill:none;stroke:none;opacity:0.2;}
       	.base-shadow 	{fill:black;opacity:75;}
	</style></svg>
